<svg width="180" height="180" viewBox="0 0 180 180" fill="none" xmlns="http://www.w3.org/2000/svg">
<path d="M158.906 90H149.062C148.289 90 147.656 90.6328 147.656 91.4062V147.656H32.3438V32.3438H88.5938C89.3672 32.3438 90 31.7109 90 30.9375V21.0938C90 20.3203 89.3672 19.6875 88.5938 19.6875H25.3125C22.2012 19.6875 19.6875 22.2012 19.6875 25.3125V154.688C19.6875 157.799 22.2012 160.312 25.3125 160.312H154.688C157.799 160.312 160.312 157.799 160.312 154.688V91.4062C160.312 90.6328 159.68 90 158.906 90Z" fill="#F8E295"/>
<path d="M62.5607 94.0254L62.2267 114.926C62.2092 116.49 63.4748 117.773 65.0392 117.773H65.1096L85.8517 117.264C86.2033 117.246 86.5549 117.105 86.801 116.859L159.908 43.9102C160.453 43.3652 160.453 42.4688 159.908 41.9238L138.059 20.0918C137.778 19.8105 137.426 19.6875 137.057 19.6875C136.688 19.6875 136.336 19.8281 136.055 20.0918L62.965 93.041C62.7111 93.3065 62.5668 93.6581 62.5607 94.0254ZM73.7228 98.1738L137.057 34.9805L145.002 42.9082L81.633 106.137L73.5998 106.33L73.7228 98.1738Z" fill="#F8E295"/>
</svg>
