<svg width="30" height="32" viewBox="0 0 30 32" fill="none" xmlns="http://www.w3.org/2000/svg">
<rect x="7.72998" y="2.8111" width="14.0552" height="23.5425" rx="2" fill="white"/>
<path d="M23.1646 0H6C2.68629 0 0 2.68629 0 6V20.6083C0 23.891 2.63801 26.5642 5.92037 26.6078L12.7079 26.6979C13.0999 26.7564 13.4408 26.4423 13.4408 26.0439V21.1152C13.4408 18.6741 14.4404 16.3407 16.2047 14.6632L16.8795 14.0216C17.6741 13.2661 18.1243 12.2151 18.1243 11.1156V10.7287C18.1243 9.53559 17.4897 8.43357 16.4604 7.8394C15.4308 7.24503 14.1635 7.24967 13.1382 7.85157L13.0855 7.88251C12.0917 8.46595 11.4564 9.51274 11.3951 10.668L11.3759 11.0292C11.3362 11.7772 10.7008 12.3513 9.95668 12.3114C9.21254 12.2715 8.64147 11.6327 8.68116 10.8847L8.70032 10.5235C8.80999 8.45668 9.94651 6.58389 11.7246 5.54009L11.7773 5.50915C13.6373 4.41719 15.9364 4.40877 17.8043 5.48707C19.6716 6.56497 20.8229 8.56422 20.8229 10.7287V11.1156C20.8229 12.9607 20.0674 14.7244 18.7339 15.9923L18.0591 16.6339C16.8337 17.799 16.1394 19.4197 16.1394 21.1152V25.9747C16.1394 26.382 16.495 26.6988 16.8935 26.6248C17.5728 26.6468 17.4374 26.6469 19.038 26.6363L26.2128 31.1604C26.6253 31.4205 27.1281 30.9964 26.9413 30.5459L25.2994 26.5865C27.4446 26.5581 29.1646 24.809 29.1646 22.6636V6C29.1646 2.68629 26.4783 0 23.1646 0Z" fill="#F8E295"/>
<path d="M23.1646 0H6C2.68629 0 0 2.68629 0 6V20.6083C0 23.891 2.63801 26.5642 5.92037 26.6078L12.7079 26.6979C13.0999 26.7564 13.4408 26.4423 13.4408 26.0439V21.1152C13.4408 18.6741 14.4404 16.3407 16.2047 14.6632L16.8795 14.0216C17.6741 13.2661 18.1243 12.2151 18.1243 11.1156V10.7287C18.1243 9.53559 17.4897 8.43357 16.4604 7.8394C15.4308 7.24503 14.1635 7.24967 13.1382 7.85157L13.0855 7.88251C12.0917 8.46595 11.4564 9.51274 11.3951 10.668L11.3759 11.0292C11.3362 11.7772 10.7008 12.3513 9.95668 12.3114C9.21254 12.2715 8.64147 11.6327 8.68116 10.8847L8.70032 10.5235C8.80999 8.45668 9.94651 6.58389 11.7246 5.54009L11.7773 5.50915C13.6373 4.41719 15.9364 4.40877 17.8043 5.48707C19.6716 6.56497 20.8229 8.56422 20.8229 10.7287V11.1156C20.8229 12.9607 20.0674 14.7244 18.7339 15.9923L18.0591 16.6339C16.8337 17.799 16.1394 19.4197 16.1394 21.1152V25.9747C16.1394 26.382 16.495 26.6988 16.8935 26.6248C17.5728 26.6468 17.4374 26.6469 19.038 26.6363L26.2128 31.1604C26.6253 31.4205 27.1281 30.9964 26.9413 30.5459L25.2994 26.5865C27.4446 26.5581 29.1646 24.809 29.1646 22.6636V6C29.1646 2.68629 26.4783 0 23.1646 0Z" fill="#F7BD28" fill-opacity="0.53" style="mix-blend-mode:multiply"/>
<path d="M23.1646 0H6C2.68629 0 0 2.68629 0 6V20.6083C0 23.891 2.63801 26.5642 5.92037 26.6078L12.7079 26.6979C13.0999 26.7564 13.4408 26.4423 13.4408 26.0439V21.1152C13.4408 18.6741 14.4404 16.3407 16.2047 14.6632L16.8795 14.0216C17.6741 13.2661 18.1243 12.2151 18.1243 11.1156V10.7287C18.1243 9.53559 17.4897 8.43357 16.4604 7.8394C15.4308 7.24503 14.1635 7.24967 13.1382 7.85157L13.0855 7.88251C12.0917 8.46595 11.4564 9.51274 11.3951 10.668L11.3759 11.0292C11.3362 11.7772 10.7008 12.3513 9.95668 12.3114C9.21254 12.2715 8.64147 11.6327 8.68116 10.8847L8.70032 10.5235C8.80999 8.45668 9.94651 6.58389 11.7246 5.54009L11.7773 5.50915C13.6373 4.41719 15.9364 4.40877 17.8043 5.48707C19.6716 6.56497 20.8229 8.56422 20.8229 10.7287V11.1156C20.8229 12.9607 20.0674 14.7244 18.7339 15.9923L18.0591 16.6339C16.8337 17.799 16.1394 19.4197 16.1394 21.1152V25.9747C16.1394 26.382 16.495 26.6988 16.8935 26.6248C17.5728 26.6468 17.4374 26.6469 19.038 26.6363L26.2128 31.1604C26.6253 31.4205 27.1281 30.9964 26.9413 30.5459L25.2994 26.5865C27.4446 26.5581 29.1646 24.809 29.1646 22.6636V6C29.1646 2.68629 26.4783 0 23.1646 0Z" fill="url(#paint0_radial)" style="mix-blend-mode:screen"/>
<defs>
<radialGradient id="paint0_radial" cx="0" cy="0" r="1" gradientUnits="userSpaceOnUse" gradientTransform="translate(14.6238 12.7606) rotate(90) scale(16.9507 21.4641)">
<stop stop-color="#B59730"/>
<stop offset="1" stop-color="#B15743" stop-opacity="0"/>
</radialGradient>
</defs>
</svg>
