<svg width="60" height="60" viewBox="0 0 60 60" fill="none" xmlns="http://www.w3.org/2000/svg">
<circle opacity="0.2" cx="30" cy="30" r="30" fill="#F6D467"/>
<path d="M41.4844 30H39.8438C39.7148 30 39.6094 30.1055 39.6094 30.2344V39.6094H20.3906V20.3906H29.7656C29.8945 20.3906 30 20.2852 30 20.1562V18.5156C30 18.3867 29.8945 18.2812 29.7656 18.2812H19.2188C18.7002 18.2812 18.2812 18.7002 18.2812 19.2188V40.7812C18.2812 41.2998 18.7002 41.7188 19.2188 41.7188H40.7812C41.2998 41.7188 41.7188 41.2998 41.7188 40.7812V30.2344C41.7188 30.1055 41.6133 30 41.4844 30Z" fill="#F6D467"/>
<path d="M25.4268 30.6709L25.3711 34.1543C25.3682 34.415 25.5791 34.6289 25.8399 34.6289H25.8516L29.3086 34.5439C29.3672 34.541 29.4258 34.5176 29.4668 34.4766L41.6514 22.3184C41.7422 22.2275 41.7422 22.0781 41.6514 21.9873L38.0098 18.3486C37.9629 18.3018 37.9043 18.2812 37.8428 18.2812C37.7813 18.2812 37.7227 18.3047 37.6758 18.3486L25.4942 30.5068C25.4519 30.5511 25.4278 30.6097 25.4268 30.6709ZM27.2871 31.3623L37.8428 20.8301L39.167 22.1514L28.6055 32.6895L27.2666 32.7217L27.2871 31.3623Z" fill="#F6D467"/>
</svg>
