<svg width="104" height="104" viewBox="0 0 104 104" fill="none" xmlns="http://www.w3.org/2000/svg">
<path d="M69.875 31.6875V26.8125C69.875 26.3656 69.5094 26 69.0625 26H30.0625C29.6156 26 29.25 26.3656 29.25 26.8125V31.6875C29.25 32.1344 29.6156 32.5 30.0625 32.5H69.0625C69.5094 32.5 69.875 32.1344 69.875 31.6875ZM30.0625 40.625C29.6156 40.625 29.25 40.9906 29.25 41.4375V46.3125C29.25 46.7594 29.6156 47.125 30.0625 47.125H48.75C49.1969 47.125 49.5625 46.7594 49.5625 46.3125V41.4375C49.5625 40.9906 49.1969 40.625 48.75 40.625H30.0625ZM68.25 52.4062C56.1336 52.4062 46.3125 62.2273 46.3125 74.3438C46.3125 86.4602 56.1336 96.2812 68.25 96.2812C80.3664 96.2812 90.1875 86.4602 90.1875 74.3438C90.1875 62.2273 80.3664 52.4062 68.25 52.4062ZM79.168 85.2617C76.2531 88.1766 72.3734 89.7812 68.25 89.7812C64.1266 89.7812 60.2469 88.1766 57.332 85.2617C54.4172 82.3469 52.8125 78.4672 52.8125 74.3438C52.8125 70.2203 54.4172 66.3406 57.332 63.4258C60.2469 60.5109 64.1266 58.9062 68.25 58.9062C72.3734 58.9062 76.2531 60.5109 79.168 63.4258C82.0828 66.3406 83.6875 70.2203 83.6875 74.3438C83.6875 78.4672 82.0828 82.3469 79.168 85.2617ZM77.2891 66.625H72.7898C72.5258 66.625 72.282 66.7469 72.1297 66.9602L65.6805 75.8773L63.3344 72.6375C63.2592 72.5329 63.16 72.4478 63.0452 72.3895C62.9303 72.3311 62.8031 72.3013 62.6742 72.3023H58.1953C57.5352 72.3023 57.1492 73.0539 57.5352 73.5922L65.0305 83.9617C65.3555 84.4086 66.0156 84.4086 66.3406 83.9617L77.9391 67.9148C78.3352 67.3766 77.9492 66.625 77.2891 66.625ZM44.6875 86.5312H21.125V15.0312H78V49.9688C78 50.4156 78.3656 50.7812 78.8125 50.7812H84.5C84.9469 50.7812 85.3125 50.4156 85.3125 49.9688V10.9688C85.3125 9.17109 83.8602 7.71875 82.0625 7.71875H17.0625C15.2648 7.71875 13.8125 9.17109 13.8125 10.9688V90.5938C13.8125 92.3914 15.2648 93.8438 17.0625 93.8438H44.6875C45.1344 93.8438 45.5 93.4781 45.5 93.0312V87.3438C45.5 86.8969 45.1344 86.5312 44.6875 86.5312Z" fill="white"/>
</svg>
