<svg width="32" height="32" viewBox="0 0 32 32" fill="none" xmlns="http://www.w3.org/2000/svg">
<path d="M17.3334 2.70667V5.4C23.1867 6.12 27.3334 11.44 26.6134 17.2933C26.0001 22.1467 22.1867 26 17.3334 26.5733V29.24C24.6667 28.5067 30.0001 22 29.2667 14.6667C28.6667 8.33333 23.6401 3.33333 17.3334 2.70667ZM14.6667 2.74667C12.0667 3 9.58673 4 7.56007 5.68L9.46673 7.65333C10.9601 6.45333 12.7601 5.68 14.6667 5.41333V2.74667ZM5.68007 7.56C4.01294 9.58312 2.987 12.0574 2.7334 14.6667H5.40007C5.6534 12.7733 6.40007 10.9733 7.58673 9.46666L5.68007 7.56ZM2.74673 17.3333C3.0134 19.9467 4.04007 22.4133 5.6934 24.44L7.58673 22.5333C6.4093 21.0261 5.65867 19.2301 5.4134 17.3333H2.74673ZM9.46673 24.4933L7.56007 26.32C9.57977 28.0036 12.0524 29.052 14.6667 29.3333V26.6667C12.7699 26.4214 10.9739 25.6708 9.46673 24.4933ZM16.6667 9.33333V16.3333L22.6667 19.8933L21.6667 21.5333L14.6667 17.3333V9.33333H16.6667Z" fill="white"/>
</svg>
