<svg width="60" height="60" viewBox="0 0 60 60" fill="none" xmlns="http://www.w3.org/2000/svg">
<circle opacity="0.2" cx="30" cy="30" r="30" fill="#FF772E"/>
<path d="M43.9278 31.875C44.4456 31.875 44.8653 31.4553 44.8653 30.9375C44.8653 30.4197 44.4456 30 43.9278 30H40.0923C39.54 30 39.0923 30.4477 39.0923 31V38.4128C39.0923 38.9442 39.5231 39.375 40.0545 39.375C40.5858 39.375 41.0166 38.9442 41.0166 38.4128V36.625C41.0166 36.0727 41.4643 35.625 42.0166 35.625H42.9656C43.4834 35.625 43.9031 35.2053 43.9031 34.6875C43.9031 34.1697 43.4834 33.75 42.9656 33.75H41.9541C41.4364 33.75 41.0166 33.3303 41.0166 32.8125C41.0166 32.2947 41.4364 31.875 41.9541 31.875H43.9278Z" fill="#FF772E"/>
<path d="M34.2813 39.375H31.4326C30.8803 39.375 30.4326 38.9273 30.4326 38.375V31C30.4326 30.4477 30.8803 30 31.4326 30H34.2813C35.0466 30.0007 35.7804 30.2973 36.3215 30.8246C36.8627 31.3519 37.1671 32.0668 37.1678 32.8125V36.5625C37.1671 37.3082 36.8627 38.0231 36.3215 38.5504C35.7804 39.0777 35.0466 39.3743 34.2813 39.375ZM32.357 36.5C32.357 37.0523 32.8047 37.5 33.357 37.5H34.2813C34.5364 37.4998 34.781 37.4009 34.9614 37.2251C35.1418 37.0494 35.2432 36.8111 35.2435 36.5625V32.8125C35.2432 32.5639 35.1418 32.3256 34.9614 32.1499C34.781 31.9741 34.5364 31.8752 34.2813 31.875H33.357C32.8047 31.875 32.357 32.3227 32.357 32.875V36.5Z" fill="#FF772E"/>
<path d="M26.5838 30H22.7729C22.2207 30 21.7729 30.4477 21.7729 31V38.4128C21.7729 38.9442 22.2037 39.375 22.7351 39.375C23.2665 39.375 23.6973 38.9442 23.6973 38.4128V37.5625C23.6973 37.0102 24.145 36.5625 24.6973 36.5625H26.5838C27.0939 36.5618 27.583 36.364 27.9437 36.0125C28.3044 35.661 28.5074 35.1846 28.5081 34.6875V31.875C28.5076 31.3779 28.3047 30.9012 27.944 30.5497C27.5832 30.1982 27.094 30.0005 26.5838 30ZM24.6973 34.6875C24.145 34.6875 23.6973 34.2398 23.6973 33.6875V32.875C23.6973 32.3227 24.145 31.875 24.6973 31.875H25.5841C26.1363 31.875 26.584 32.3225 26.5841 32.8747L26.5844 33.6872C26.5846 34.2396 26.1368 34.6875 25.5844 34.6875H24.6973Z" fill="#FF772E"/>
<path d="M36.2056 28.125C36.737 28.125 37.1677 27.6942 37.1677 27.1628V24.375C37.1711 24.2517 37.1471 24.1293 37.0973 24.016C37.0474 23.9027 36.973 23.8013 36.8791 23.7187L30.1439 17.1562C30.0592 17.0647 29.9551 16.9921 29.8388 16.9435C29.7225 16.895 29.5968 16.8716 29.4704 16.875H19.8487C19.3388 16.8764 18.8502 17.0745 18.4896 17.4258C18.1291 17.7771 17.9258 18.2531 17.9243 18.75V41.2499C17.9243 41.7472 18.1271 42.2241 18.4879 42.5758C18.8488 42.9274 19.3383 43.1249 19.8487 43.1249H34.3059C34.8237 43.1249 35.2434 42.7052 35.2434 42.1874C35.2434 41.6697 34.8237 41.2499 34.3059 41.2499H19.8487V18.75H27.546V24.375C27.5476 24.8718 27.7508 25.3478 28.1113 25.6991C28.4719 26.0504 28.9605 26.2485 29.4704 26.25H35.2434V27.1628C35.2434 27.6942 35.6742 28.125 36.2056 28.125ZM29.4704 24.375V19.125L34.8585 24.375H29.4704Z" fill="#FF772E"/>
</svg>
