<svg width="32" height="32" viewBox="0 0 32 32" fill="none" xmlns="http://www.w3.org/2000/svg">
<path d="M27.9998 18H21.9998C21.4695 18.0005 20.9611 18.2114 20.5862 18.5864C20.2112 18.9613 20.0003 19.4697 19.9998 20V22H14.4138L9.99979 17.586V12H11.9998C12.5301 11.9995 13.0385 11.7886 13.4134 11.4136C13.7884 11.0387 13.9993 10.5303 13.9998 10V4C13.9993 3.46973 13.7884 2.96133 13.4134 2.58637C13.0385 2.21141 12.5301 2.00053 11.9998 2H5.99979C5.46952 2.00053 4.96112 2.21141 4.58616 2.58637C4.2112 2.96133 4.00032 3.46973 3.99979 4V10C4.00032 10.5303 4.2112 11.0387 4.58616 11.4136C4.96112 11.7886 5.46952 11.9995 5.99979 12H7.99979V17.586L3.29279 22.293C3.10532 22.4805 3 22.7348 3 23C3 23.2652 3.10532 23.5195 3.29279 23.707L8.29279 28.707C8.48031 28.8945 8.73462 28.9998 8.99979 28.9998C9.26495 28.9998 9.51926 28.8945 9.70679 28.707L14.4138 24H19.9998V26C20.0003 26.5303 20.2112 27.0387 20.5862 27.4136C20.9611 27.7886 21.4695 27.9995 21.9998 28H27.9998C28.5301 27.9995 29.0385 27.7886 29.4134 27.4136C29.7884 27.0387 29.9993 26.5303 29.9998 26V20C29.9993 19.4697 29.7884 18.9613 29.4134 18.5864C29.0385 18.2114 28.5301 18.0005 27.9998 18ZM5.99979 4H11.9998V10H5.99979V4ZM8.99979 26.586L5.41379 23L8.99979 19.414L12.5858 23L8.99979 26.586ZM21.9998 26V20H27.9998V26H21.9998Z" fill="white"/>
</svg>
