<svg width="195" height="190" viewBox="0 0 195 190" fill="none" xmlns="http://www.w3.org/2000/svg">
<path d="M180.812 106.875C181.917 106.875 182.812 105.98 182.812 104.875V97C182.812 95.8954 181.917 95 180.812 95H148.25C147.145 95 146.25 95.8954 146.25 97V152.375C146.25 153.48 147.145 154.375 148.25 154.375H156.438C157.542 154.375 158.438 153.48 158.438 152.375V132.625C158.438 131.52 159.333 130.625 160.438 130.625H174.719C175.823 130.625 176.719 129.73 176.719 128.625V120.75C176.719 119.645 175.823 118.75 174.719 118.75H160.438C159.333 118.75 158.438 117.855 158.438 116.75V108.875C158.438 107.77 159.333 106.875 160.438 106.875H180.812Z" fill="#F8E295"/>
<path d="M115.782 154.375H93.4067C92.3022 154.375 91.4067 153.48 91.4067 152.375V97C91.4067 95.8954 92.3022 95 93.4067 95H115.782C120.629 95.0047 125.276 96.8829 128.703 100.222C132.131 103.562 134.058 108.09 134.063 112.812V136.562C134.058 141.285 132.131 145.813 128.703 149.153C125.276 152.492 120.629 154.37 115.782 154.375ZM103.594 140.5C103.594 141.605 104.49 142.5 105.594 142.5H115.782C117.397 142.498 118.946 141.872 120.089 140.759C121.231 139.646 121.874 138.137 121.875 136.562V112.812C121.874 111.238 121.231 109.729 120.089 108.616C118.946 107.503 117.397 106.877 115.782 106.875H105.594C104.49 106.875 103.594 107.77 103.594 108.875V140.5Z" fill="#F8E295"/>
<path d="M67.0312 95H38.5625C37.4579 95 36.5625 95.8954 36.5625 97V152.375C36.5625 153.48 37.4579 154.375 38.5625 154.375H46.75C47.8546 154.375 48.75 153.48 48.75 152.375V138.562C48.75 137.458 49.6454 136.562 50.75 136.562H67.0312C70.2621 136.558 73.3592 135.305 75.6438 133.079C77.9283 130.853 79.2139 127.835 79.2188 124.688V106.875C79.2155 103.727 77.9305 100.708 75.6455 98.4816C73.3606 96.2553 70.2626 95.0031 67.0312 95ZM50.75 124.688C49.6454 124.688 48.75 123.792 48.75 122.688V108.875C48.75 107.77 49.6454 106.875 50.75 106.875H65.0319C66.1362 106.875 67.0316 107.77 67.0319 108.874L67.0367 122.687C67.037 123.792 66.1415 124.688 65.0367 124.688H50.75Z" fill="#F8E295"/>
<path d="M132.062 83.1248C133.167 83.1248 134.062 82.2294 134.062 81.1248V59.3748C134.084 58.5945 133.931 57.8189 133.616 57.1014C133.3 56.3839 132.829 55.7416 132.234 55.2186L89.5776 13.6561C89.0412 13.0762 88.382 12.6167 87.6455 12.3092C86.9091 12.0017 86.1129 11.8535 85.312 11.8748H24.3745C21.1452 11.8842 18.0508 13.1383 15.7673 15.3633C13.4838 17.5883 12.1967 20.6033 12.187 23.7498V166.25C12.187 169.399 13.471 172.42 15.7566 174.647C18.0422 176.874 21.1422 178.125 24.3745 178.125H119.875C120.979 178.125 121.875 177.229 121.875 176.125V168.25C121.875 167.145 120.979 166.25 119.875 166.25H24.3745V23.7498H73.1245V59.3748C73.1342 62.5214 74.4213 65.5364 76.7048 67.7613C78.9883 69.9863 82.0827 71.2404 85.312 71.2498H121.875V81.1248C121.875 82.2294 122.77 83.1248 123.875 83.1248H132.062ZM85.312 59.3748V26.1248L119.437 59.3748H85.312Z" fill="#F8E295"/>
</svg>
