<svg width="32" height="32" viewBox="0 0 32 32" fill="none" xmlns="http://www.w3.org/2000/svg">
<circle opacity="0.2" cx="16" cy="16" r="16" fill="#35DFFE"/>
<g clip-path="url(#clip0)">
<path d="M14.0069 12.3166C14.6187 12.7155 15.1213 13.2605 15.4694 13.9025C15.8174 14.5445 15.9999 15.2632 16.0003 15.9935V15.9935C16.0003 14.4606 16.7868 13.1118 17.9774 12.3275C18.2265 12.1119 18.4389 11.8996 18.6371 11.6753L13.3569 11.6677C13.5628 11.8996 13.7751 12.1119 13.9994 12.3112L14.0069 12.3166Z" fill="#35DFFE"/>
<path d="M19.445 13.8983C20.0549 13.4569 20.5516 12.8772 20.8943 12.2069C21.237 11.5365 21.416 10.7945 21.4167 10.0416V9.49992H22.5V7.33325H9.5V9.49992H10.5833V10.0416C10.5833 10.7918 10.7608 11.5314 11.1012 12.2C11.4416 12.8686 11.9353 13.4472 12.542 13.8885C12.9044 14.1156 13.2095 14.4233 13.4335 14.7877C13.6575 15.152 13.7943 15.5632 13.8333 15.9891C13.7876 16.4247 13.6466 16.845 13.4202 17.22C13.1939 17.595 12.8878 17.9156 12.5236 18.159C11.9306 18.6001 11.4472 19.1719 11.1109 19.83C10.7746 20.4882 10.5944 21.2149 10.5844 21.9539V22.4988H9.50108V24.6655H22.5011V22.4988H21.4178V21.9572C21.4091 21.222 21.2318 20.4986 20.8995 19.8428C20.5673 19.1869 20.0889 18.6161 19.5013 18.1742C19.1342 17.9335 18.8245 17.6151 18.5943 17.2414C18.364 16.8677 18.2187 16.4479 18.1688 16.0118C18.2029 15.5865 18.3349 15.1749 18.5546 14.8091C18.7743 14.4434 19.0757 14.1335 19.4352 13.9037L19.445 13.8983ZM17.0833 15.9999C17.1197 16.5894 17.2861 17.1635 17.5706 17.681C17.8551 18.1985 18.2507 18.6466 18.7289 18.9932C19.2076 19.3283 19.6017 19.7701 19.8802 20.2838C20.1586 20.7975 20.3138 21.3689 20.3333 21.9528V22.4999H18.4158C17.6575 21.5574 16.5633 20.3333 16 20.3333C15.4367 20.3333 14.3425 21.5574 13.5842 22.4999H11.6667V21.9583C11.6846 21.3779 11.8366 20.8096 12.1108 20.2978C12.385 19.786 12.774 19.3447 13.2473 19.0083C13.7298 18.6635 14.1298 18.2158 14.4183 17.6976C14.7068 17.1794 14.8766 16.6037 14.9156 16.0118C14.8855 15.4355 14.7235 14.8737 14.4421 14.3698C14.1608 13.8659 13.7676 13.4333 13.2928 13.1053C12.7935 12.765 12.3844 12.3085 12.101 11.7749C11.8175 11.2414 11.6681 10.6468 11.6656 10.0427V9.501H20.3322V10.0427C20.3312 10.6423 20.1849 11.2327 19.9059 11.7634C19.6268 12.2941 19.2234 12.7493 18.73 13.0901C18.2516 13.4152 17.8542 13.8459 17.5685 14.3489C17.2828 14.8519 17.1164 15.4138 17.0822 15.9913L17.0833 15.9999Z" fill="#35DFFE"/>
</g>
<defs>
<clipPath id="clip0">
<rect width="17.3333" height="17.3333" fill="white" transform="translate(7.3335 7.33325)"/>
</clipPath>
</defs>
</svg>
