<svg width="32" height="32" viewBox="0 0 32 32" fill="none" xmlns="http://www.w3.org/2000/svg">
<circle opacity="0.2" cx="16" cy="16" r="16" fill="#F6D467"/>
<g clip-path="url(#clip0)">
<path d="M14.0067 12.9832C14.6184 13.382 15.1211 13.9271 15.4691 14.5691C15.8172 15.2111 15.9996 15.9298 16 16.6601V16.6601C16 15.1271 16.7865 13.7784 17.9771 12.9941C18.5906 12.589 19.0399 11.9788 19.2446 11.2726L12.75 11.251C12.9569 11.9768 13.4033 12.5781 13.9958 12.9778L14.0067 12.9832Z" fill="#F6D467"/>
<path d="M19.445 14.565C20.0549 14.1236 20.5516 13.544 20.8943 12.8736C21.237 12.2032 21.416 11.4612 21.4167 10.7083V10.1667H22.5V8H9.5V10.1667H10.5833V10.7083C10.5833 11.4586 10.7608 12.1982 11.1012 12.8668C11.4416 13.5353 11.9353 14.1139 12.542 14.5553C12.9044 14.7823 13.2095 15.09 13.4335 15.4544C13.6575 15.8188 13.7943 16.2299 13.8333 16.6558C13.7876 17.0915 13.6466 17.5117 13.4202 17.8867C13.1939 18.2617 12.8878 18.5823 12.5236 18.8258C11.9306 19.2669 11.4472 19.8387 11.1109 20.4968C10.7746 21.1549 10.5944 21.8817 10.5844 22.6207V23.1656H9.50108V25.3323H22.5011V23.1656H21.4178V22.6239C21.4091 21.8888 21.2318 21.1654 20.8995 20.5095C20.5673 19.8537 20.0889 19.2828 19.5013 18.8409C19.1342 18.6003 18.8245 18.2818 18.5943 17.9082C18.364 17.5345 18.2187 17.1147 18.1688 16.6786C18.2029 16.2533 18.3349 15.8416 18.5546 15.4759C18.7743 15.1101 19.0757 14.8002 19.4352 14.5704L19.445 14.565ZM17.0833 16.6667C17.1197 17.2561 17.2861 17.8302 17.5706 18.3477C17.8551 18.8653 18.2507 19.3134 18.7289 19.6599C19.2076 19.995 19.6017 20.4369 19.8802 20.9505C20.1586 21.4642 20.3138 22.0356 20.3333 22.6196V23.1667H11.6667V22.625C11.6846 22.0447 11.8366 21.4763 12.1108 20.9646C12.385 20.4528 12.774 20.0114 13.2473 19.6751C13.7298 19.3303 14.1298 18.8826 14.4183 18.3644C14.7068 17.8462 14.8766 17.2704 14.9156 16.6786C14.8855 16.1022 14.7235 15.5405 14.4421 15.0366C14.1608 14.5327 13.7676 14.1001 13.2928 13.772C12.7935 13.4318 12.3844 12.9752 12.101 12.4417C11.8175 11.9081 11.6681 11.3136 11.6656 10.7094V10.1678H20.3322V10.7094C20.3312 11.309 20.1849 11.8994 19.9059 12.4302C19.6268 12.9609 19.2234 13.4161 18.73 13.7568C18.2516 14.082 17.8542 14.5126 17.5685 15.0156C17.2828 15.5186 17.1164 16.0805 17.0822 16.658L17.0833 16.6667Z" fill="#F6D467"/>
</g>
<defs>
<clipPath id="clip0">
<rect width="17.3333" height="17.3333" fill="white" transform="translate(7.3335 8)"/>
</clipPath>
</defs>
</svg>
