<svg width="60" height="60" viewBox="0 0 60 60" fill="none" xmlns="http://www.w3.org/2000/svg">
<circle opacity="0.2" cx="30" cy="30" r="30" fill="#35DFFE"/>
<path d="M37.875 23.1875V21.3125C37.875 21.1406 37.7344 21 37.5625 21H22.5625C22.3906 21 22.25 21.1406 22.25 21.3125V23.1875C22.25 23.3594 22.3906 23.5 22.5625 23.5H37.5625C37.7344 23.5 37.875 23.3594 37.875 23.1875ZM22.5625 26.625C22.3906 26.625 22.25 26.7656 22.25 26.9375V28.8125C22.25 28.9844 22.3906 29.125 22.5625 29.125H29.75C29.9219 29.125 30.0625 28.9844 30.0625 28.8125V26.9375C30.0625 26.7656 29.9219 26.625 29.75 26.625H22.5625ZM37.25 31.1562C32.5898 31.1562 28.8125 34.9336 28.8125 39.5938C28.8125 44.2539 32.5898 48.0312 37.25 48.0312C41.9102 48.0312 45.6875 44.2539 45.6875 39.5938C45.6875 34.9336 41.9102 31.1562 37.25 31.1562ZM41.4492 43.793C40.3281 44.9141 38.8359 45.5312 37.25 45.5312C35.6641 45.5312 34.1719 44.9141 33.0508 43.793C31.9297 42.6719 31.3125 41.1797 31.3125 39.5938C31.3125 38.0078 31.9297 36.5156 33.0508 35.3945C34.1719 34.2734 35.6641 33.6562 37.25 33.6562C38.8359 33.6562 40.3281 34.2734 41.4492 35.3945C42.5703 36.5156 43.1875 38.0078 43.1875 39.5938C43.1875 41.1797 42.5703 42.6719 41.4492 43.793ZM40.7266 36.625H38.9961C38.8945 36.625 38.8008 36.6719 38.7422 36.7539L36.2617 40.1836L35.3594 38.9375C35.3305 38.8972 35.2923 38.8645 35.2481 38.8421C35.2039 38.8197 35.155 38.8082 35.1055 38.8086H33.3828C33.1289 38.8086 32.9805 39.0977 33.1289 39.3047L36.0117 43.293C36.1367 43.4648 36.3906 43.4648 36.5156 43.293L40.9766 37.1211C41.1289 36.9141 40.9805 36.625 40.7266 36.625ZM28.1875 44.2812H19.125V16.7812H41V30.2188C41 30.3906 41.1406 30.5312 41.3125 30.5312H43.5C43.6719 30.5312 43.8125 30.3906 43.8125 30.2188V15.2188C43.8125 14.5273 43.2539 13.9688 42.5625 13.9688H17.5625C16.8711 13.9688 16.3125 14.5273 16.3125 15.2188V45.8438C16.3125 46.5352 16.8711 47.0938 17.5625 47.0938H28.1875C28.3594 47.0938 28.5 46.9531 28.5 46.7812V44.5938C28.5 44.4219 28.3594 44.2812 28.1875 44.2812Z" fill="#35DFFE"/>
</svg>
