<svg width="39" height="57" viewBox="0 0 39 57" fill="none" xmlns="http://www.w3.org/2000/svg">
<g clip-path="url(#clip0)">
<path d="M36.3741 47.1095C38.0513 43.2677 38.913 39.125 38.9054 34.9391C38.9038 34.7476 38.9251 34.5567 38.9687 34.3702C38.9928 32.7367 39.0048 30.7404 39.0048 28.3813C39.0048 23.442 38.9521 18.1594 38.8466 12.5333C38.7412 6.90718 38.6613 3.255 38.6071 1.57673C38.6104 1.37236 38.5721 1.16942 38.4945 0.980078C38.4168 0.790732 38.3013 0.618873 38.155 0.474801C38.0107 0.321651 37.8356 0.200248 37.6409 0.118454C37.4463 0.0366603 37.2364 -0.00369993 37.025 -1.24209e-05H32.8439C32.6362 -0.000582248 32.4307 0.0412899 32.2402 0.122987C32.0496 0.204684 31.8781 0.324451 31.7364 0.474801C31.5901 0.618873 31.4747 0.790732 31.397 0.980078C31.3193 1.16942 31.281 1.37236 31.2844 1.57673L31.1895 23.0195C31.1835 23.0686 31.1638 23.115 31.1326 23.1535C31.1014 23.1921 31.0599 23.2212 31.0128 23.2375C30.9657 23.2538 30.9149 23.2567 30.8663 23.2459C30.8176 23.2351 30.773 23.211 30.7375 23.1763C29.4249 21.5522 27.7125 20.2903 25.7653 19.5121C23.7839 18.587 21.627 18.0893 19.437 18.0519C15.999 18.0248 12.6202 18.9394 9.67347 20.6947C6.74068 22.4104 4.30536 24.8485 2.60393 27.7721C0.868114 30.7336 -0.0312238 34.1035 0.000313525 37.5282C-0.0130278 40.932 0.872821 44.28 2.56981 47.2394C4.2668 50.1989 6.71583 52.6666 9.67347 54.3975C12.6285 56.1288 16.0042 57.0286 19.437 57C22.7669 57.0186 26.0422 56.1624 28.9294 54.5184C31.8054 52.9019 34.2218 50.5905 35.9537 47.7994C36.1074 47.5799 36.2385 47.3425 36.3741 47.1095ZM28.5497 43.32C27.5229 45.0559 26.0708 46.5072 24.3279 47.5395C22.5805 48.5859 20.5746 49.1317 18.533 49.1163C16.5078 49.1241 14.5176 48.5935 12.7698 47.5799C10.9893 46.5617 9.51115 45.0964 8.48426 43.3317C7.45738 41.567 6.91807 39.5652 6.92069 37.5282C6.90231 35.4895 7.44791 33.4849 8.49823 31.7318C9.52505 29.9959 10.9771 28.5446 12.7201 27.5123C14.4762 26.4806 16.4802 25.9363 18.5217 25.9363C20.5632 25.9363 22.5672 26.4806 24.3233 27.5123C26.0658 28.5452 27.5177 29.9964 28.5452 31.7318C29.5791 33.4909 30.1238 35.4902 30.1238 37.5259C30.1238 39.5616 29.5791 41.5609 28.5452 43.32H28.5497Z" fill="#FBFCFD"/>
<path d="M38.9006 35.3871C38.8372 35.1859 38.7255 35.003 38.5752 34.854C38.4451 34.7248 38.2898 34.6233 38.1189 34.5555C37.9479 34.4877 37.7648 34.4552 37.5807 34.4598C37.3882 34.4528 37.1962 34.484 37.0161 34.5517C36.836 34.6194 36.6714 34.7222 36.532 34.854C36.3998 34.9812 36.2951 35.1339 36.2244 35.3025C36.1537 35.4712 36.1184 35.6524 36.1207 35.835V45.3358C36.1206 46.0156 36.1629 46.6947 36.2473 47.3694C37.9359 43.5928 38.8384 39.5174 38.9006 35.3871Z" fill="#F5BC24"/>
</g>
<defs>
<clipPath id="clip0">
<rect width="39" height="57" fill="white"/>
</clipPath>
</defs>
</svg>
