<svg width="1920" height="1080" viewBox="0 0 1920 1080" fill="none" xmlns="http://www.w3.org/2000/svg">
<g clip-path="url(#clip0)">
<rect width="1920" height="1080" fill="white"/>
<path d="M0 4.99998C0 2.23856 2.23858 0 5 0H1915C1917.76 0 1920 2.23858 1920 5V1080H0V4.99998Z" fill="#192039"/>
<path fill-rule="evenodd" clip-rule="evenodd" d="M0 833.193L80 824.339C160 815.486 320 796.514 480 742.129C640 687.743 800 596.679 960 578.972C1120 560 1280 614.386 1440 624.504C1600 633.357 1760 596.679 1840 578.972L1920 560V1052H1840C1760 1052 1600 1052 1440 1052C1280 1052 1120 1052 960 1052C800 1052 640 1052 480 1052C320 1052 160 1052 80 1052H0V833.193Z" fill="#38477B"/>
<path fill-rule="evenodd" clip-rule="evenodd" d="M1920 722.686L1874.67 668.301C1828 613.915 1737.33 505.144 1645.33 515.719C1554.67 526.294 1462.67 657.726 1372 689.451C1280 722.686 1188 657.726 1097.33 647.151C1005.33 635.065 914.667 678.876 822.667 743.836C732 810.308 640 896.418 548 919.079C457.333 940.229 365.333 896.418 274.667 820.882C182.667 743.836 91.9999 635.065 45.3333 580.679L-5.72205e-05 526.294V1049H45.3333C91.9999 1049 182.667 1049 274.667 1049C365.333 1049 457.333 1049 548 1049C640 1049 732 1049 822.667 1049C914.667 1049 1005.33 1049 1097.33 1049C1188 1049 1280 1049 1372 1049C1462.67 1049 1554.67 1049 1645.33 1049C1737.33 1049 1828 1049 1874.67 1049H1920V722.686Z" fill="#415396"/>
<path fill-rule="evenodd" clip-rule="evenodd" d="M0 931.258L64 897.392C128 863.527 256 795.796 384 809.907C512 823.076 640 918.088 768 945.368C896 971.708 1024 931.258 1152 911.503C1280 890.807 1408 890.807 1536 903.977C1664 918.088 1792 945.368 1856 958.538L1920 971.708V1094H1856C1792 1094 1664 1094 1536 1094C1408 1094 1280 1094 1152 1094C1024 1094 896 1094 768 1094C640 1094 512 1094 384 1094C256 1094 128 1094 64 1094H0V931.258Z" fill="#96A0B9"/>
<path fill-rule="evenodd" clip-rule="evenodd" d="M0 931.258L64 897.392C128 863.527 256 795.796 384 809.907C512 823.076 640 918.088 768 945.368C896 971.708 1024 931.258 1152 911.503C1280 890.807 1408 890.807 1536 903.977C1664 918.088 1792 945.368 1856 958.538L1920 971.708V1094H1856C1792 1094 1664 1094 1536 1094C1408 1094 1280 1094 1152 1094C1024 1094 896 1094 768 1094C640 1094 512 1094 384 1094C256 1094 128 1094 64 1094H0V931.258Z" fill="#5369BB"/>
<path d="M1375.37 163.604C1375.17 163.227 1375.05 162.755 1374.98 162.189C1374.92 161.624 1374.95 161.058 1375.08 160.492C1375.27 159.926 1375.53 159.392 1375.84 158.889C1376.23 158.386 1376.74 158.009 1377.38 157.757C1378.27 157.38 1379.04 157.191 1379.67 157.191C1380.38 157.191 1380.98 157.317 1381.49 157.569C1382 157.757 1382.48 158.04 1382.93 158.417C1383.37 158.732 1383.82 159.046 1384.27 159.36C1386.12 160.743 1389.02 161.435 1392.98 161.435C1395.02 161.435 1396.65 160.995 1397.86 160.115C1399.14 159.235 1399.77 158.071 1399.77 156.625C1399.77 155.179 1399.2 154.048 1398.05 153.23C1396.9 152.35 1395.43 151.627 1393.65 151.061C1391.92 150.433 1390.04 149.835 1388 149.27C1386.02 148.641 1384.14 147.824 1382.35 146.818C1380.63 145.749 1379.19 144.397 1378.05 142.763C1376.9 141.128 1376.32 138.927 1376.32 136.161C1376.32 131.76 1377.89 128.208 1381.01 125.505C1384.14 122.738 1388.45 121.355 1393.93 121.355C1396.36 121.355 1398.47 121.575 1400.25 122.015C1402.04 122.393 1403.51 122.864 1404.65 123.43C1405.87 123.996 1406.79 124.624 1407.43 125.316C1408.13 125.945 1408.61 126.542 1408.87 127.108C1409.31 127.988 1409.47 129.025 1409.34 130.22C1409.28 131.352 1408.8 132.232 1407.91 132.86C1406.63 133.678 1405.45 133.961 1404.37 133.709C1403.28 133.395 1402.29 132.986 1401.4 132.483C1400.89 132.232 1400.06 131.886 1398.91 131.446C1397.83 130.943 1396.17 130.691 1393.93 130.691C1391.89 130.691 1390.33 131.194 1389.24 132.2C1388.22 133.143 1387.71 134.338 1387.71 135.784C1387.71 136.978 1388.26 137.921 1389.34 138.613C1390.49 139.242 1391.89 139.839 1393.55 140.405C1395.27 140.908 1397.13 141.474 1399.1 142.102C1401.08 142.668 1402.9 143.517 1404.56 144.649C1406.28 145.717 1407.69 147.163 1408.77 148.987C1409.92 150.81 1410.49 153.168 1410.49 156.06C1410.49 160.461 1408.93 163.95 1405.8 166.528C1402.68 169.105 1398.4 170.394 1392.98 170.394C1391 170.394 1389.05 170.205 1387.14 169.828C1385.29 169.514 1383.57 169.042 1381.97 168.414C1380.44 167.785 1379.1 167.062 1377.95 166.245C1376.8 165.427 1375.94 164.547 1375.37 163.604Z" fill="white"/>
<path d="M1467.32 121.449C1471.02 121.449 1474.08 121.984 1476.5 123.053C1478.93 124.059 1480.84 125.505 1482.25 127.391C1483.65 129.214 1484.64 131.414 1485.21 133.992C1485.79 136.507 1486.08 139.242 1486.08 142.197V165.962C1486.08 167.093 1485.57 168.131 1484.54 169.074C1483.52 169.954 1482.12 170.394 1480.33 170.394C1478.74 170.394 1477.43 169.954 1476.41 169.074C1475.45 168.131 1474.97 167.093 1474.97 165.962V141.819C1474.97 138.362 1474.3 135.815 1472.96 134.181C1471.69 132.546 1469.49 131.729 1466.36 131.729C1460.81 131.729 1458.03 135.092 1458.03 141.819V166.339L1457.84 167.188L1457.65 167.471C1457.59 167.596 1457.52 167.722 1457.46 167.848C1457.46 167.911 1457.39 168.005 1457.27 168.131C1456.82 168.759 1456.21 169.262 1455.45 169.64C1454.68 170.08 1453.79 170.331 1452.77 170.394H1452.29C1450.82 170.394 1449.61 170.048 1448.65 169.357C1447.69 168.665 1447.09 167.816 1446.83 166.81C1446.83 166.81 1446.8 166.748 1446.74 166.622V141.819C1446.74 135.092 1443.96 131.729 1438.41 131.729C1435.22 131.729 1432.99 132.546 1431.71 134.181C1430.43 135.815 1429.8 138.362 1429.8 141.819V165.962C1429.8 167.093 1429.29 168.131 1428.27 169.074C1427.31 169.954 1426 170.394 1424.34 170.394C1422.62 170.394 1421.21 169.954 1420.13 169.074C1419.11 168.131 1418.6 167.093 1418.6 165.962V142.197C1418.6 139.242 1418.89 136.507 1419.46 133.992C1420.03 131.414 1421.02 129.214 1422.43 127.391C1423.89 125.505 1425.84 124.059 1428.27 123.053C1430.69 121.984 1433.75 121.449 1437.45 121.449C1441.15 121.449 1444.19 122.141 1446.55 123.524C1448.97 124.844 1450.89 126.605 1452.29 128.805C1453.76 126.605 1455.67 124.844 1458.03 123.524C1460.39 122.141 1463.49 121.449 1467.32 121.449Z" fill="white"/>
<path d="M1514.19 121.261C1516.81 121.261 1519.1 121.795 1521.08 122.864C1523.12 123.87 1524.78 125.096 1526.06 126.542L1526.73 126.448V109.19C1526.73 108.058 1527.21 107.052 1528.16 106.172C1529.18 105.229 1530.49 104.757 1532.09 104.757C1533.87 104.757 1535.28 105.229 1536.3 106.172C1537.32 107.052 1537.83 108.058 1537.83 109.19V149.835C1537.83 152.79 1537.38 155.525 1536.49 158.04C1535.6 160.555 1534.26 162.724 1532.47 164.547C1530.75 166.37 1528.55 167.816 1525.87 168.885C1523.25 169.891 1520.19 170.394 1516.68 170.394C1512.91 170.394 1509.63 169.828 1506.82 168.697C1504.08 167.565 1501.78 166.025 1499.93 164.076C1498.08 162.127 1496.67 159.863 1495.72 157.286C1494.82 154.645 1494.38 151.847 1494.38 148.892V142.763C1494.38 139.808 1494.76 137.041 1495.53 134.464C1496.29 131.823 1497.47 129.528 1499.07 127.579C1500.66 125.63 1502.7 124.09 1505.19 122.958C1507.68 121.827 1510.68 121.261 1514.19 121.261ZM1516.68 160.115C1519.49 160.115 1521.85 159.329 1523.76 157.757C1525.74 156.185 1526.73 153.671 1526.73 150.213V141.159C1526.6 137.827 1525.55 135.407 1523.57 133.898C1521.66 132.326 1519.36 131.54 1516.68 131.54C1513.36 131.54 1510.68 132.515 1508.64 134.464C1506.66 136.413 1505.67 139.053 1505.67 142.385V149.27C1505.67 152.602 1506.66 155.242 1508.64 157.191C1510.68 159.14 1513.36 160.115 1516.68 160.115Z" fill="white"/>
<path d="M1569.52 170.394C1566.01 170.394 1562.91 169.891 1560.23 168.885C1557.62 167.816 1555.42 166.37 1553.63 164.547C1551.84 162.661 1550.5 160.461 1549.61 157.946C1548.72 155.368 1548.27 152.602 1548.27 149.647V125.882C1548.27 124.75 1548.78 123.744 1549.8 122.864C1550.89 121.921 1552.29 121.449 1554.01 121.449C1555.67 121.449 1556.98 121.921 1557.94 122.864C1558.96 123.744 1559.47 124.75 1559.47 125.882V150.024C1559.47 153.482 1560.43 156.028 1562.34 157.663C1564.25 159.297 1566.65 160.115 1569.52 160.115C1572.39 160.115 1574.75 159.297 1576.6 157.663C1578.52 156.028 1579.47 153.482 1579.47 150.024V125.882C1579.47 124.75 1579.98 123.744 1581 122.864C1582.03 121.921 1583.37 121.449 1585.02 121.449C1586.68 121.449 1588.06 121.921 1589.14 122.864C1590.22 123.744 1590.77 124.75 1590.77 125.882V149.647C1590.77 152.602 1590.32 155.368 1589.43 157.946C1588.53 160.461 1587.19 162.661 1585.41 164.547C1583.62 166.37 1581.39 167.816 1578.71 168.885C1576.09 169.891 1573.03 170.394 1569.52 170.394ZM1570.48 113.811C1569.71 114.125 1568.82 114.062 1567.8 113.622C1566.84 113.119 1566.11 112.365 1565.59 111.359C1565.08 110.353 1564.99 109.378 1565.31 108.435C1565.69 107.429 1566.23 106.769 1566.93 106.455L1580.43 99.3819C1581.77 98.8161 1583.01 98.879 1584.16 99.5705C1585.31 100.199 1586.14 101.079 1586.65 102.211C1587.23 103.343 1587.39 104.537 1587.13 105.795C1586.94 107.052 1586.17 107.964 1584.83 108.53L1570.48 113.811Z" fill="white"/>
<path d="M1626.18 166.433C1625.86 167.502 1625.13 168.445 1623.98 169.262C1622.83 170.017 1621.49 170.394 1619.96 170.394C1618.36 170.394 1616.99 170.017 1615.84 169.262C1614.76 168.445 1614.06 167.502 1613.74 166.433L1598.33 127.391C1598.01 126.322 1598.2 125.222 1598.9 124.09C1599.6 122.895 1600.82 122.078 1602.54 121.638C1604.13 121.261 1605.54 121.387 1606.75 122.015C1608.03 122.644 1608.82 123.493 1609.14 124.562L1619.96 156.625L1630.68 124.562C1631.06 123.493 1631.86 122.644 1633.07 122.015C1634.35 121.387 1635.75 121.261 1637.28 121.638C1639.01 122.078 1640.22 122.895 1640.92 124.09C1641.69 125.222 1641.91 126.322 1641.59 127.391L1626.18 166.433Z" fill="white"/>
<path d="M1650.11 125.788C1650.11 124.656 1650.62 123.65 1651.64 122.77C1652.73 121.827 1654.13 121.355 1655.85 121.355C1657.51 121.355 1658.82 121.827 1659.78 122.77C1660.8 123.65 1661.31 124.656 1661.31 125.788V165.962C1661.31 167.093 1660.8 168.131 1659.78 169.074C1658.82 169.954 1657.51 170.394 1655.85 170.394C1654.13 170.394 1652.73 169.954 1651.64 169.074C1650.62 168.131 1650.11 167.093 1650.11 165.962V125.788ZM1650.11 108.813C1650.11 107.681 1650.62 106.675 1651.64 105.795C1652.73 104.852 1654.13 104.38 1655.85 104.38C1657.51 104.38 1658.82 104.852 1659.78 105.795C1660.8 106.675 1661.31 107.681 1661.31 108.813V111.076C1661.31 112.208 1660.8 113.245 1659.78 114.188C1658.82 115.068 1657.51 115.508 1655.85 115.508C1654.13 115.508 1652.73 115.068 1651.64 114.188C1650.62 113.245 1650.11 112.208 1650.11 111.076V108.813Z" fill="white"/>
<path d="M1690.44 121.261C1693.06 121.261 1695.35 121.795 1697.33 122.864C1699.37 123.87 1701.03 125.096 1702.31 126.542L1702.98 126.448V109.19C1702.98 108.058 1703.46 107.052 1704.41 106.172C1705.43 105.229 1706.74 104.757 1708.34 104.757C1710.12 104.757 1711.53 105.229 1712.55 106.172C1713.57 107.052 1714.08 108.058 1714.08 109.19V149.835C1714.08 152.79 1713.63 155.525 1712.74 158.04C1711.85 160.555 1710.51 162.724 1708.72 164.547C1707 166.37 1704.8 167.816 1702.12 168.885C1699.5 169.891 1696.44 170.394 1692.93 170.394C1689.16 170.394 1685.88 169.828 1683.07 168.697C1680.33 167.565 1678.03 166.025 1676.18 164.076C1674.33 162.127 1672.92 159.863 1671.97 157.286C1671.07 154.645 1670.63 151.847 1670.63 148.892V142.763C1670.63 139.808 1671.01 137.041 1671.78 134.464C1672.54 131.823 1673.72 129.528 1675.32 127.579C1676.91 125.63 1678.95 124.09 1681.44 122.958C1683.93 121.827 1686.93 121.261 1690.44 121.261ZM1692.93 160.115C1695.74 160.115 1698.1 159.329 1700.01 157.757C1701.99 156.185 1702.98 153.671 1702.98 150.213V141.159C1702.85 137.827 1701.8 135.407 1699.82 133.898C1697.91 132.326 1695.61 131.54 1692.93 131.54C1689.61 131.54 1686.93 132.515 1684.89 134.464C1682.91 136.413 1681.92 139.053 1681.92 142.385V149.27C1681.92 152.602 1682.91 155.242 1684.89 157.191C1686.93 159.14 1689.61 160.115 1692.93 160.115Z" fill="white"/>
<path d="M1760.51 170.866C1758.91 170.866 1757.61 170.394 1756.59 169.451C1755.63 168.571 1755.15 167.565 1755.15 166.433V164.924L1754.29 164.641C1753.71 165.459 1753.08 166.213 1752.37 166.905C1751.74 167.596 1750.94 168.225 1749.98 168.791C1749.02 169.294 1747.88 169.671 1746.54 169.923C1745.26 170.237 1743.66 170.394 1741.75 170.394C1738.69 170.394 1736.01 169.86 1733.71 168.791C1731.41 167.659 1729.53 166.213 1728.06 164.453C1726.6 162.692 1725.48 160.681 1724.71 158.417C1724.01 156.154 1723.66 153.828 1723.66 151.439V143.14C1723.66 140.499 1724.14 137.89 1725.1 135.312C1726.05 132.735 1727.46 130.408 1729.31 128.334C1731.16 126.259 1733.49 124.593 1736.29 123.336C1739.1 122.015 1742.39 121.355 1746.15 121.355C1749.66 121.355 1752.69 121.827 1755.25 122.77C1757.8 123.713 1759.87 125.033 1761.47 126.731C1763.13 128.365 1764.34 130.314 1765.1 132.578C1765.87 134.841 1766.25 137.324 1766.25 140.028V166.433C1766.25 167.565 1765.74 168.571 1764.72 169.451C1763.7 170.394 1762.3 170.866 1760.51 170.866ZM1755.15 140.216C1755.15 137.073 1754.35 134.872 1752.76 133.615C1751.23 132.295 1749.02 131.634 1746.15 131.634C1744.49 131.634 1742.99 131.949 1741.65 132.578C1740.31 133.143 1739.17 133.961 1738.21 135.029C1737.25 136.035 1736.49 137.198 1735.91 138.519C1735.4 139.839 1735.15 141.254 1735.15 142.763V151.816C1735.15 154.079 1736.01 156.028 1737.73 157.663C1739.45 159.297 1741.59 160.115 1744.14 160.115C1745.55 160.115 1746.89 159.895 1748.16 159.455C1749.5 158.952 1750.68 158.26 1751.7 157.38C1752.72 156.437 1753.55 155.274 1754.19 153.891C1754.83 152.507 1755.15 150.904 1755.15 149.081V140.216Z" fill="white"/>
<path d="M1775.26 163.604C1775.07 163.227 1774.94 162.755 1774.87 162.189C1774.81 161.624 1774.84 161.058 1774.97 160.492C1775.16 159.926 1775.42 159.392 1775.74 158.889C1776.12 158.386 1776.63 158.009 1777.27 157.757C1778.16 157.38 1778.93 157.191 1779.56 157.191C1780.27 157.191 1780.87 157.317 1781.38 157.569C1781.89 157.757 1782.37 158.04 1782.82 158.417C1783.26 158.732 1783.71 159.046 1784.16 159.36C1786.01 160.743 1788.91 161.435 1792.87 161.435C1794.91 161.435 1796.54 160.995 1797.75 160.115C1799.03 159.235 1799.66 158.071 1799.66 156.625C1799.66 155.179 1799.09 154.048 1797.94 153.23C1796.79 152.35 1795.32 151.627 1793.54 151.061C1791.82 150.433 1789.93 149.835 1787.89 149.27C1785.91 148.641 1784.03 147.824 1782.24 146.818C1780.52 145.749 1779.09 144.397 1777.94 142.763C1776.79 141.128 1776.21 138.927 1776.21 136.161C1776.21 131.76 1777.78 128.208 1780.9 125.505C1784.03 122.738 1788.34 121.355 1793.83 121.355C1796.25 121.355 1798.36 121.575 1800.14 122.015C1801.93 122.393 1803.4 122.864 1804.54 123.43C1805.76 123.996 1806.68 124.624 1807.32 125.316C1808.02 125.945 1808.5 126.542 1808.76 127.108C1809.2 127.988 1809.36 129.025 1809.23 130.22C1809.17 131.352 1808.69 132.232 1807.8 132.86C1806.52 133.678 1805.34 133.961 1804.26 133.709C1803.17 133.395 1802.18 132.986 1801.29 132.483C1800.78 132.232 1799.95 131.886 1798.8 131.446C1797.72 130.943 1796.06 130.691 1793.83 130.691C1791.78 130.691 1790.22 131.194 1789.14 132.2C1788.11 133.143 1787.6 134.338 1787.6 135.784C1787.6 136.978 1788.15 137.921 1789.23 138.613C1790.38 139.242 1791.78 139.839 1793.44 140.405C1795.17 140.908 1797.02 141.474 1798.99 142.102C1800.97 142.668 1802.79 143.517 1804.45 144.649C1806.17 145.717 1807.58 147.163 1808.66 148.987C1809.81 150.81 1810.38 153.168 1810.38 156.06C1810.38 160.461 1808.82 163.95 1805.69 166.528C1802.57 169.105 1798.29 170.394 1792.87 170.394C1790.89 170.394 1788.94 170.205 1787.03 169.828C1785.18 169.514 1783.46 169.042 1781.86 168.414C1780.33 167.785 1778.99 167.062 1777.84 166.245C1776.69 165.427 1775.83 164.547 1775.26 163.604Z" fill="white"/>
<path fill-rule="evenodd" clip-rule="evenodd" d="M1330.32 174.11C1330.32 175.164 1331.26 175.984 1332.31 175.793C1347.76 172.967 1359.47 159.55 1359.47 143.425C1359.47 125.247 1344.59 110.51 1326.23 110.51C1307.88 110.51 1293 125.247 1293 143.425C1293 159.947 1305.29 173.625 1321.31 175.982C1322.34 176.133 1323.23 175.32 1323.23 174.289V161.076C1323.23 154.757 1325.86 148.716 1330.5 144.374L1332.27 142.713C1334.36 140.757 1335.54 138.037 1335.54 135.191V134.189C1335.54 131.101 1333.87 128.248 1331.17 126.71C1328.46 125.171 1325.13 125.183 1322.44 126.741L1322.3 126.821C1319.69 128.332 1318.02 131.041 1317.86 134.032L1317.81 134.967C1317.71 136.903 1316.04 138.389 1314.08 138.286C1312.13 138.183 1310.63 136.529 1310.73 134.593L1310.78 133.658C1311.07 128.308 1314.05 123.46 1318.73 120.758L1318.86 120.678C1323.75 117.851 1329.79 117.829 1334.7 120.621C1339.6 123.411 1342.63 128.586 1342.63 134.189V135.191C1342.63 139.967 1340.64 144.532 1337.14 147.815L1335.37 149.475C1332.15 152.491 1330.32 156.687 1330.32 161.076V174.11Z" fill="#F8E295"/>
<path fill-rule="evenodd" clip-rule="evenodd" d="M1330.32 174.11C1330.32 175.164 1331.26 175.984 1332.31 175.793C1347.76 172.967 1359.47 159.55 1359.47 143.425C1359.47 125.247 1344.59 110.51 1326.23 110.51C1307.88 110.51 1293 125.247 1293 143.425C1293 159.947 1305.29 173.625 1321.31 175.982C1322.34 176.133 1323.23 175.32 1323.23 174.289V161.076C1323.23 154.757 1325.86 148.716 1330.5 144.374L1332.27 142.713C1334.36 140.757 1335.54 138.037 1335.54 135.191V134.189C1335.54 131.101 1333.87 128.248 1331.17 126.71C1328.46 125.171 1325.13 125.183 1322.44 126.741L1322.3 126.821C1319.69 128.332 1318.02 131.041 1317.86 134.032L1317.81 134.967C1317.71 136.903 1316.04 138.389 1314.08 138.286C1312.13 138.183 1310.63 136.529 1310.73 134.593L1310.78 133.658C1311.07 128.308 1314.05 123.46 1318.73 120.758L1318.86 120.678C1323.75 117.851 1329.79 117.829 1334.7 120.621C1339.6 123.411 1342.63 128.586 1342.63 134.189V135.191C1342.63 139.967 1340.64 144.532 1337.14 147.815L1335.37 149.475C1332.15 152.491 1330.32 156.687 1330.32 161.076V174.11Z" fill="#F7BD28" fill-opacity="0.53" style="mix-blend-mode:multiply"/>
<path fill-rule="evenodd" clip-rule="evenodd" d="M1330.32 174.11C1330.32 175.164 1331.26 175.984 1332.31 175.793C1347.76 172.967 1359.47 159.55 1359.47 143.425C1359.47 125.247 1344.59 110.51 1326.23 110.51C1307.88 110.51 1293 125.247 1293 143.425C1293 159.947 1305.29 173.625 1321.31 175.982C1322.34 176.133 1323.23 175.32 1323.23 174.289V161.076C1323.23 154.757 1325.86 148.716 1330.5 144.374L1332.27 142.713C1334.36 140.757 1335.54 138.037 1335.54 135.191V134.189C1335.54 131.101 1333.87 128.248 1331.17 126.71C1328.46 125.171 1325.13 125.183 1322.44 126.741L1322.3 126.821C1319.69 128.332 1318.02 131.041 1317.86 134.032L1317.81 134.967C1317.71 136.903 1316.04 138.389 1314.08 138.286C1312.13 138.183 1310.63 136.529 1310.73 134.593L1310.78 133.658C1311.07 128.308 1314.05 123.46 1318.73 120.758L1318.86 120.678C1323.75 117.851 1329.79 117.829 1334.7 120.621C1339.6 123.411 1342.63 128.586 1342.63 134.189V135.191C1342.63 139.967 1340.64 144.532 1337.14 147.815L1335.37 149.475C1332.15 152.491 1330.32 156.687 1330.32 161.076V174.11Z" fill="url(#paint0_radial)" style="mix-blend-mode:screen"/>
</g>
<defs>
<radialGradient id="paint0_radial" cx="0" cy="0" r="1" gradientUnits="userSpaceOnUse" gradientTransform="translate(1326.33 142.029) rotate(90) scale(35.1029 48.9177)">
<stop stop-color="#B59730"/>
<stop offset="1" stop-color="#B15743" stop-opacity="0"/>
</radialGradient>
<clipPath id="clip0">
<rect width="1920" height="1080" fill="white"/>
</clipPath>
</defs>
</svg>
