<svg width="1920" height="1080" viewBox="0 0 1920 1080" fill="none" xmlns="http://www.w3.org/2000/svg">
<g clip-path="url(#clip0)">
<rect width="1920" height="1080" fill="white"/>
<path d="M0 18C0 15.2386 2.23858 13 5 13H1919C1921.76 13 1924 15.2386 1924 18V1080H0V18Z" fill="#192039"/>
<path fill-rule="evenodd" clip-rule="evenodd" d="M-37 130.609L31.9 176.1C100.8 221.591 187.643 271.847 325.443 252.892C463.243 235.201 673.893 167.255 811.693 130.609C949.493 95.2274 1084.73 129.464 1222.53 156C1360.33 183.8 1478.8 184.946 1616.6 167.255C1754.4 148.3 1892.2 111.655 1961.1 93.9637L2030 76.2727L2030 -88L1961.1 -88C1892.2 -88 1754.4 -88 1616.6 -88C1478.8 -87.9999 1341 -87.9999 1203.2 -87.9999C1065.4 -87.9999 927.6 -87.9999 789.8 -87.9999C652 -87.9999 514.2 -87.9999 376.4 -87.9999C238.6 -87.9998 100.8 -87.9998 31.9 -87.9998L-37 -87.9998L-37 130.609Z" fill="#96A0B9"/>
<path fill-rule="evenodd" clip-rule="evenodd" d="M-37 130.609L31.9 176.1C100.8 221.591 187.643 271.847 325.443 252.892C463.243 235.201 673.893 167.255 811.693 130.609C949.493 95.2274 1084.73 129.464 1222.53 156C1360.33 183.8 1478.8 184.946 1616.6 167.255C1754.4 148.3 1892.2 111.655 1961.1 93.9637L2030 76.2727L2030 -88L1961.1 -88C1892.2 -88 1754.4 -88 1616.6 -88C1478.8 -87.9999 1341 -87.9999 1203.2 -87.9999C1065.4 -87.9999 927.6 -87.9999 789.8 -87.9999C652 -87.9999 514.2 -87.9999 376.4 -87.9999C238.6 -87.9998 100.8 -87.9998 31.9 -87.9998L-37 -87.9998L-37 130.609Z" fill="#5369BB"/>
<path fill-rule="evenodd" clip-rule="evenodd" d="M-37 130.609L31.9 176.1C100.8 221.591 187.643 271.847 325.443 252.892C463.243 235.201 673.893 167.255 811.693 130.609C949.493 95.2274 1084.73 129.464 1222.53 156C1360.33 183.8 1478.8 184.946 1616.6 167.255C1754.4 148.3 1892.2 111.655 1961.1 93.9637L2030 76.2727L2030 -88L1961.1 -88C1892.2 -88 1754.4 -88 1616.6 -88C1478.8 -87.9999 1341 -87.9999 1203.2 -87.9999C1065.4 -87.9999 927.6 -87.9999 789.8 -87.9999C652 -87.9999 514.2 -87.9999 376.4 -87.9999C238.6 -87.9998 100.8 -87.9998 31.9 -87.9998L-37 -87.9998L-37 130.609Z" stroke="black"/>
</g>
<defs>
<clipPath id="clip0">
<rect width="1920" height="1080" fill="white"/>
</clipPath>
</defs>
</svg>
