<svg width="1920" height="1080" viewBox="0 0 1920 1080" fill="none" xmlns="http://www.w3.org/2000/svg">
<g clip-path="url(#clip0)">
<rect width="1920" height="1080" fill="white"/>
<path d="M0 18C0 15.2386 2.23858 13 5 13H1919C1921.76 13 1924 15.2386 1924 18V1080H0V18Z" fill="#192039"/>
<path fill-rule="evenodd" clip-rule="evenodd" d="M1361 92L1301 99C1241 106 1121 121 1001 164C881 207 761 279 641 293C521 308 401 265 281 257C161 250 41 279 -19 293L-79 308V-81H-19C41 -81 161 -81 281 -81C401 -81 521 -81 641 -81C761 -81 881 -81 1001 -81C1121 -81 1241 -81 1301 -81H1361V92Z" fill="#415396"/>
<path fill-rule="evenodd" clip-rule="evenodd" d="M1984 121.134L1915.23 163.197C1846.47 205.26 1759.79 251.728 1622.26 234.202C1484.73 217.844 1336.45 182.03 1198.91 148.147C1061.38 115.431 812.101 96.5978 674.568 121.134C537.035 146.839 471.133 171.376 333.6 155.018C196.067 137.492 58.5334 103.608 -10.2333 87.2505L-79 70.8927L-79 -81L-10.2333 -81C58.5334 -81 196.067 -81 333.6 -81C471.133 -81 608.667 -81 746.2 -80.9999C883.733 -80.9999 1021.27 -80.9999 1158.8 -80.9999C1296.33 -80.9999 1433.87 -80.9999 1571.4 -80.9999C1708.93 -80.9999 1846.47 -80.9998 1915.23 -80.9998L1984 -80.9998L1984 121.134Z" fill="#96A0B9"/>
<path fill-rule="evenodd" clip-rule="evenodd" d="M1984 121.134L1915.23 163.197C1846.47 205.26 1759.79 251.728 1622.26 234.202C1484.73 217.844 1336.45 182.03 1198.91 148.147C1061.38 115.431 812.101 96.5978 674.568 121.134C537.035 146.839 471.133 171.376 333.6 155.018C196.067 137.492 58.5334 103.608 -10.2333 87.2505L-79 70.8927L-79 -81L-10.2333 -81C58.5334 -81 196.067 -81 333.6 -81C471.133 -81 608.667 -81 746.2 -80.9999C883.733 -80.9999 1021.27 -80.9999 1158.8 -80.9999C1296.33 -80.9999 1433.87 -80.9999 1571.4 -80.9999C1708.93 -80.9999 1846.47 -80.9998 1915.23 -80.9998L1984 -80.9998L1984 121.134Z" fill="#5369BB"/>
</g>
<defs>
<clipPath id="clip0">
<rect width="1920" height="1080" fill="white"/>
</clipPath>
</defs>
</svg>
