<svg width="1920" height="1080" viewBox="0 0 1920 1080" fill="none" xmlns="http://www.w3.org/2000/svg">
<g clip-path="url(#clip0)">
<rect width="1920" height="1080" fill="white"/>
<path d="M0 4.99998C0 2.23856 2.23858 0 5 0H1915C1917.76 0 1920 2.23858 1920 5V1080H0V4.99998Z" fill="#192039"/>
<path fill-rule="evenodd" clip-rule="evenodd" d="M0 833.193L80 824.339C160 815.486 320 796.514 480 742.129C640 687.743 800 596.679 960 578.972C1120 560 1280 614.386 1440 624.504C1600 633.357 1760 596.679 1840 578.972L1920 560V1052H1840C1760 1052 1600 1052 1440 1052C1280 1052 1120 1052 960 1052C800 1052 640 1052 480 1052C320 1052 160 1052 80 1052H0V833.193Z" fill="#38477B"/>
<path fill-rule="evenodd" clip-rule="evenodd" d="M1920 804.686L1874.67 750.301C1828 695.915 1737.33 587.144 1645.33 597.719C1554.67 608.294 1462.67 739.726 1372 771.451C1280 804.686 1188 739.726 1097.33 729.151C1005.33 717.065 914.667 760.876 822.667 825.836C732 892.307 640 978.418 548 1001.08C457.333 1022.23 365.333 978.418 274.667 902.882C182.667 825.836 92 717.065 45.3333 662.679L0 608.294V1131H45.3333C92 1131 182.667 1131 274.667 1131C365.333 1131 457.333 1131 548 1131C640 1131 732 1131 822.667 1131C914.667 1131 1005.33 1131 1097.33 1131C1188 1131 1280 1131 1372 1131C1462.67 1131 1554.67 1131 1645.33 1131C1737.33 1131 1828 1131 1874.67 1131H1920V804.686Z" fill="#415396"/>
<path fill-rule="evenodd" clip-rule="evenodd" d="M0 931.258L64 897.392C128 863.527 256 795.796 384 809.907C512 823.076 640 918.088 768 945.368C896 971.708 1024 931.258 1152 911.503C1280 890.807 1408 890.807 1536 903.977C1664 918.088 1792 945.368 1856 958.538L1920 971.708V1094H1856C1792 1094 1664 1094 1536 1094C1408 1094 1280 1094 1152 1094C1024 1094 896 1094 768 1094C640 1094 512 1094 384 1094C256 1094 128 1094 64 1094H0V931.258Z" fill="#96A0B9"/>
<path fill-rule="evenodd" clip-rule="evenodd" d="M0 931.258L64 897.392C128 863.527 256 795.796 384 809.907C512 823.076 640 918.088 768 945.368C896 971.708 1024 931.258 1152 911.503C1280 890.807 1408 890.807 1536 903.977C1664 918.088 1792 945.368 1856 958.538L1920 971.708V1094H1856C1792 1094 1664 1094 1536 1094C1408 1094 1280 1094 1152 1094C1024 1094 896 1094 768 1094C640 1094 512 1094 384 1094C256 1094 128 1094 64 1094H0V931.258Z" fill="#5369BB"/>
<path fill-rule="evenodd" clip-rule="evenodd" d="M1982 -217.185L1899.42 -207.846C1816.83 -198.506 1651.67 -178.494 1486.5 -121.123C1321.33 -63.7532 1156.17 32.3085 991 50.9871C825.833 71 660.667 13.6298 495.5 2.9563C330.333 -6.38303 165.167 32.3085 82.5833 50.9871L0 71V-448H82.5833C165.167 -448 330.333 -448 495.5 -448C660.667 -448 825.833 -448 991 -448C1156.17 -448 1321.33 -448 1486.5 -448C1651.67 -448 1816.83 -448 1899.42 -448H1982V-217.185Z" fill="#253056"/>
<g clip-path="url(#clip1)">
<path d="M1398.27 146.595C1398.92 148.531 1399.25 150.559 1399.25 152.6C1399.29 156.309 1398.02 159.915 1395.66 162.792C1393.18 165.842 1389.94 168.198 1386.26 169.628C1382.32 171.225 1378.09 172.034 1373.84 172.008C1369.02 172.01 1364.27 170.925 1359.94 168.835C1355.57 166.765 1351.87 163.507 1349.28 159.436C1349.06 159.006 1348.96 158.523 1349 158.041C1348.94 157.563 1349.02 157.077 1349.25 156.651C1349.47 156.225 1349.83 155.879 1350.26 155.661L1357.28 151.894C1357.63 151.714 1358.01 151.619 1358.4 151.616C1358.81 151.61 1359.2 151.695 1359.57 151.864C1359.93 152.032 1360.25 152.281 1360.51 152.592C1362.23 154.456 1364.34 155.933 1366.68 156.922C1369.02 157.996 1371.55 158.566 1374.12 158.596C1376.74 158.619 1379.32 157.995 1381.64 156.779C1383.93 155.569 1385.07 153.847 1385.07 151.616C1385.14 150.636 1384.91 149.659 1384.43 148.804C1383.94 147.948 1383.21 147.253 1382.34 146.802C1380.51 145.829 1377.64 144.969 1373.72 144.224C1370.28 143.555 1366.89 142.621 1363.59 141.432C1359.18 139.666 1355.86 137.199 1353.63 134.032C1351.45 131.075 1350.27 127.506 1350.26 123.84C1350.26 119.081 1352.06 114.753 1355.67 110.856C1359.27 106.959 1364.25 104.495 1370.61 103.464C1372.52 103.188 1374.44 103.048 1376.37 103.043C1386.57 103.043 1394.43 107.371 1399.95 116.027C1400.25 116.433 1400.4 116.924 1400.38 117.423C1400.39 117.91 1400.26 118.39 1400.01 118.81C1399.77 119.23 1399.41 119.574 1398.97 119.803L1392.79 123.427C1392.39 123.581 1391.96 123.674 1391.53 123.705C1391.11 123.722 1390.69 123.643 1390.3 123.474C1389.91 123.305 1389.56 123.051 1389.28 122.729C1385.56 118.171 1380.98 115.892 1375.53 115.892C1374.54 115.922 1373.55 116.015 1372.58 116.17C1370.49 116.477 1368.51 117.295 1366.82 118.549C1365.22 119.76 1364.38 121.016 1364.29 122.317C1364.02 124.279 1364.52 126.269 1365.69 127.869C1366.87 129.317 1368.42 130.415 1370.18 131.042C1372.79 131.944 1375.45 132.668 1378.16 133.207C1381.88 134.138 1384.92 135.021 1387.28 135.856C1389.67 136.727 1391.89 138.029 1393.81 139.695C1395.91 141.535 1397.46 143.926 1398.27 146.595Z" fill="#FBFCFD"/>
<path d="M1499.74 117.709C1497.51 113.234 1494.06 109.481 1489.77 106.89C1485.35 104.146 1479.89 102.774 1473.41 102.774C1464.2 102.774 1456.92 106.258 1451.56 113.227V171.73H1454.6C1454.95 171.738 1455.29 171.67 1455.61 171.534C1455.92 171.397 1456.21 171.193 1456.44 170.937C1456.89 170.468 1457.14 169.842 1457.14 169.192L1457.56 132.073C1457.56 126.954 1459.11 122.951 1462.22 120.064C1465.17 117.237 1469.13 115.681 1473.23 115.734C1477.38 115.66 1481.39 117.216 1484.4 120.064C1487.5 122.951 1489.06 126.954 1489.06 132.073L1489.48 169.208C1489.48 169.538 1489.56 169.864 1489.69 170.164C1489.83 170.464 1490.03 170.733 1490.28 170.953C1490.5 171.198 1490.77 171.395 1491.07 171.531C1491.38 171.668 1491.71 171.741 1492.04 171.746H1500.09C1500.44 171.753 1500.78 171.686 1501.1 171.549C1501.42 171.412 1501.7 171.209 1501.93 170.953C1502.38 170.483 1502.63 169.858 1502.63 169.208L1503.02 132.073C1503.06 127.096 1501.93 122.179 1499.74 117.709Z" fill="#FBFCFD"/>
<path d="M1403.41 117.709C1405.62 113.238 1409.07 109.486 1413.35 106.89C1417.77 104.146 1423.22 102.774 1429.71 102.774C1438.92 102.774 1446.2 106.258 1451.56 113.227V171.73H1448.52C1448.17 171.738 1447.83 171.67 1447.51 171.534C1447.2 171.397 1446.91 171.193 1446.68 170.937C1446.23 170.468 1445.98 169.842 1445.98 169.192L1445.55 132.073C1445.55 126.954 1444 122.951 1440.89 120.064C1437.94 117.237 1433.98 115.681 1429.88 115.734C1425.73 115.66 1421.72 117.216 1418.71 120.064C1415.62 122.962 1414.07 126.965 1414.07 132.073L1413.65 169.208C1413.64 169.538 1413.57 169.864 1413.43 170.164C1413.3 170.464 1413.1 170.733 1412.85 170.953C1412.63 171.198 1412.36 171.395 1412.05 171.531C1411.75 171.668 1411.42 171.741 1411.09 171.746H1403.05C1402.7 171.753 1402.36 171.686 1402.04 171.549C1401.73 171.412 1401.44 171.209 1401.21 170.953C1400.76 170.483 1400.51 169.858 1400.51 169.208L1400.09 132.073C1400.06 127.094 1401.2 122.177 1403.41 117.709Z" fill="#FBFCFD"/>
<path d="M1572.73 93.2083C1572.92 103.165 1573.01 112.519 1573.01 121.27C1573.01 130.111 1572.92 136.068 1572.73 139.14C1572.51 145.001 1570.76 150.704 1567.65 155.685C1564.59 160.627 1560.33 164.72 1555.25 167.582C1550.06 170.501 1544.19 172.017 1538.23 171.981C1532.27 171.945 1526.42 170.357 1521.26 167.376C1516.04 164.311 1511.72 159.942 1508.73 154.701C1505.73 149.461 1504.17 143.533 1504.19 137.506C1504.13 131.422 1505.72 125.435 1508.8 120.175C1511.8 114.999 1516.09 110.682 1521.27 107.644C1526.46 104.54 1532.41 102.921 1538.47 102.964C1542.35 103.024 1546.17 103.905 1549.69 105.55C1553.1 106.937 1556.1 109.171 1558.39 112.038C1558.46 112.099 1558.54 112.142 1558.62 112.161C1558.71 112.18 1558.8 112.175 1558.88 112.146C1558.96 112.117 1559.04 112.066 1559.09 111.997C1559.15 111.929 1559.18 111.847 1559.19 111.76L1559.33 73.7919C1559.32 73.43 1559.39 73.0707 1559.53 72.7354C1559.66 72.4002 1559.87 72.0958 1560.12 71.8407C1560.38 71.5655 1560.7 71.3482 1561.05 71.2032C1561.4 71.0582 1561.77 70.989 1562.15 71H1569.54C1569.91 70.9957 1570.27 71.0682 1570.61 71.213C1570.95 71.3578 1571.26 71.5716 1571.51 71.8407C1571.77 72.0958 1571.98 72.4002 1572.11 72.7354C1572.25 73.0707 1572.32 73.43 1572.31 73.7919C1572.41 76.7689 1572.55 83.241 1572.73 93.2083ZM1554.77 127.123C1552.95 124.05 1550.39 121.481 1547.32 119.652C1544.22 117.825 1540.68 116.861 1537.08 116.861C1533.48 116.861 1529.94 117.825 1526.84 119.652C1523.77 121.48 1521.21 124.049 1519.39 127.123C1517.54 130.227 1516.58 133.777 1516.61 137.387C1516.6 140.992 1517.55 144.536 1519.36 147.66C1521.17 150.785 1523.78 153.38 1526.92 155.185C1530 156.98 1533.51 157.92 1537.08 157.906C1540.7 157.925 1544.25 156.945 1547.33 155.074C1550.4 153.255 1552.95 150.7 1554.77 147.642C1556.59 144.528 1557.55 140.987 1557.55 137.383C1557.55 133.778 1556.59 130.238 1554.77 127.123Z" fill="#FBFCFD"/>
<path d="M1568.14 134.452C1568.13 134.121 1568.19 133.791 1568.31 133.484C1568.44 133.176 1568.63 132.898 1568.87 132.668C1569.11 132.434 1569.4 132.252 1569.72 132.132C1570.04 132.012 1570.38 131.957 1570.72 131.97C1571.04 131.961 1571.36 132.019 1571.67 132.139C1571.97 132.259 1572.24 132.439 1572.47 132.668C1572.71 132.9 1572.89 133.179 1573.01 133.487C1573.13 133.794 1573.19 134.123 1573.17 134.452V151.434C1573.17 155.706 1574.13 158.976 1576.05 161.245C1577.97 163.513 1580.6 164.647 1583.92 164.647C1585.54 164.658 1587.14 164.317 1588.61 163.648C1590.07 162.989 1591.37 162.041 1592.44 160.864C1593.55 159.637 1594.43 158.218 1595.02 156.676C1595.66 155.014 1595.98 153.246 1595.97 151.465V134.5C1595.96 134.167 1596.02 133.837 1596.15 133.528C1596.27 133.219 1596.46 132.937 1596.69 132.699C1596.91 132.449 1597.19 132.249 1597.49 132.112C1597.8 131.975 1598.13 131.905 1598.46 131.906C1598.8 131.905 1599.14 131.974 1599.45 132.111C1599.76 132.248 1600.03 132.448 1600.26 132.699C1600.5 132.935 1600.68 133.216 1600.81 133.525C1600.94 133.834 1601 134.166 1601 134.5V167.146C1601.01 167.484 1600.95 167.821 1600.82 168.135C1600.69 168.448 1600.5 168.733 1600.26 168.97C1600.03 169.209 1599.75 169.397 1599.44 169.524C1599.13 169.651 1598.8 169.713 1598.46 169.708C1598.13 169.716 1597.8 169.655 1597.49 169.528C1597.18 169.401 1596.9 169.211 1596.67 168.97C1596.44 168.727 1596.26 168.441 1596.13 168.128C1596.01 167.815 1595.96 167.481 1595.97 167.146V162.863C1594.44 164.871 1592.52 166.554 1590.33 167.812C1588.21 169.039 1585.81 169.682 1583.36 169.676C1581.19 169.71 1579.04 169.266 1577.06 168.375C1575.2 167.514 1573.57 166.248 1572.27 164.671C1570.88 162.953 1569.84 160.981 1569.21 158.865C1568.47 156.398 1568.11 153.834 1568.14 151.259V134.452ZM1588.77 126.521C1588.52 126.773 1588.23 126.974 1587.91 127.11C1587.59 127.246 1587.24 127.316 1586.89 127.314C1586.56 127.32 1586.23 127.252 1585.92 127.114C1585.62 126.977 1585.35 126.774 1585.14 126.521C1584.89 126.299 1584.69 126.028 1584.55 125.724C1584.41 125.421 1584.34 125.092 1584.34 124.76C1584.33 124.415 1584.4 124.072 1584.54 123.755C1584.68 123.438 1584.88 123.154 1585.14 122.92L1591.74 116.273C1591.97 116.024 1592.25 115.826 1592.56 115.689C1592.87 115.553 1593.21 115.482 1593.55 115.48C1593.89 115.476 1594.22 115.538 1594.53 115.661C1594.84 115.785 1595.12 115.969 1595.36 116.202C1595.61 116.432 1595.81 116.711 1595.95 117.02C1596.08 117.33 1596.16 117.664 1596.16 118.002C1596.15 118.334 1596.08 118.662 1595.94 118.965C1595.81 119.268 1595.61 119.54 1595.36 119.763L1588.77 126.521Z" fill="#F5BC24"/>
<path d="M1630.97 161.419L1643.17 133.5C1643.45 132.879 1643.95 132.385 1644.58 132.12C1644.89 131.979 1645.22 131.906 1645.55 131.906C1645.88 131.906 1646.21 131.979 1646.51 132.12C1646.83 132.247 1647.11 132.437 1647.35 132.679C1647.59 132.92 1647.77 133.208 1647.89 133.524C1648.01 133.847 1648.06 134.191 1648.05 134.535C1648.03 134.88 1647.95 135.218 1647.81 135.531L1633.35 168.137C1633.27 168.296 1633.18 168.455 1633.08 168.597C1632.99 168.742 1632.88 168.871 1632.74 168.978C1632.55 169.187 1632.32 169.353 1632.05 169.462C1631.76 169.583 1631.45 169.651 1631.13 169.66C1630.72 169.682 1630.3 169.614 1629.92 169.462C1629.59 169.335 1629.3 169.128 1629.07 168.859C1628.9 168.637 1628.75 168.395 1628.63 168.137L1614.13 135.499C1613.99 135.195 1613.91 134.863 1613.9 134.526C1613.89 134.189 1613.94 133.853 1614.07 133.54C1614.19 133.229 1614.37 132.945 1614.6 132.704C1614.83 132.463 1615.11 132.27 1615.42 132.136C1615.72 131.992 1616.05 131.914 1616.38 131.907C1616.71 131.9 1617.04 131.965 1617.35 132.097C1617.67 132.226 1617.95 132.417 1618.2 132.658C1618.44 132.899 1618.63 133.185 1618.76 133.5L1630.97 161.419Z" fill="#F5BC24"/>
<path d="M1661.38 121.119C1661.66 120.835 1661.99 120.61 1662.36 120.459C1662.73 120.307 1663.12 120.233 1663.52 120.239C1663.93 120.232 1664.34 120.307 1664.72 120.458C1665.1 120.609 1665.44 120.834 1665.74 121.119C1666.04 121.405 1666.28 121.751 1666.44 122.136C1666.59 122.52 1666.67 122.933 1666.65 123.348C1666.65 123.743 1666.57 124.134 1666.41 124.495C1666.25 124.857 1666.02 125.182 1665.73 125.45C1665.44 125.741 1665.09 125.971 1664.71 126.127C1664.33 126.282 1663.92 126.359 1663.51 126.354C1663.11 126.36 1662.71 126.282 1662.35 126.127C1661.98 125.971 1661.65 125.74 1661.37 125.45C1661.09 125.177 1660.87 124.85 1660.72 124.489C1660.56 124.128 1660.49 123.74 1660.49 123.348C1660.47 122.935 1660.55 122.524 1660.7 122.141C1660.85 121.757 1661.09 121.409 1661.38 121.119ZM1666.09 167.122C1666.1 167.46 1666.04 167.797 1665.91 168.111C1665.79 168.424 1665.6 168.709 1665.35 168.946C1665.12 169.181 1664.84 169.367 1664.53 169.493C1664.22 169.62 1663.9 169.686 1663.56 169.686C1663.23 169.686 1662.9 169.62 1662.59 169.493C1662.29 169.367 1662.01 169.181 1661.77 168.946C1661.53 168.709 1661.34 168.424 1661.21 168.111C1661.08 167.797 1661.02 167.46 1661.03 167.122V134.452C1661.03 134.116 1661.1 133.782 1661.24 133.475C1661.37 133.167 1661.58 132.892 1661.83 132.668C1662.06 132.43 1662.35 132.243 1662.66 132.116C1662.97 131.99 1663.3 131.926 1663.64 131.93C1663.97 131.925 1664.3 131.987 1664.6 132.114C1664.91 132.241 1665.18 132.43 1665.41 132.668C1665.64 132.901 1665.83 133.18 1665.95 133.487C1666.08 133.793 1666.14 134.122 1666.13 134.452L1666.09 167.122Z" fill="#F5BC24"/>
<path d="M1718.26 167.186C1718.27 167.514 1718.2 167.84 1718.08 168.143C1717.95 168.446 1717.76 168.72 1717.52 168.946C1717.04 169.408 1716.4 169.666 1715.73 169.666C1715.06 169.666 1714.42 169.408 1713.94 168.946C1713.7 168.72 1713.51 168.446 1713.38 168.143C1713.26 167.84 1713.19 167.514 1713.2 167.186V164.013C1711.43 165.907 1709.3 167.433 1706.94 168.502C1704.53 169.561 1701.94 170.119 1699.31 170.144C1696.68 170.168 1694.08 169.658 1691.66 168.645C1687.05 166.697 1683.37 163.05 1681.41 158.469C1680.41 156.117 1679.9 153.59 1679.9 151.037C1679.9 148.484 1680.41 145.957 1681.41 143.605C1682.38 141.343 1683.78 139.288 1685.54 137.553C1687.3 135.819 1689.38 134.433 1691.66 133.469C1694.09 132.455 1696.69 131.945 1699.32 131.97C1701.95 131.994 1704.54 132.553 1706.94 133.611C1709.31 134.681 1711.44 136.207 1713.21 138.101V120.881C1713.2 120.549 1713.26 120.218 1713.39 119.911C1713.51 119.603 1713.7 119.326 1713.95 119.097C1714.43 118.647 1715.07 118.398 1715.74 118.398C1716.4 118.398 1717.04 118.647 1717.53 119.097C1717.77 119.326 1717.96 119.603 1718.09 119.911C1718.22 120.218 1718.28 120.549 1718.27 120.881L1718.26 167.186ZM1685 151.005C1684.99 152.844 1685.35 154.666 1686.05 156.368C1686.75 158.069 1687.78 159.616 1689.09 160.92C1690.38 162.197 1691.89 163.222 1693.56 163.942C1695.31 164.697 1697.19 165.078 1699.1 165.06C1701.02 165.08 1702.92 164.699 1704.68 163.942C1708.05 162.511 1710.73 159.823 1712.13 156.454C1713.22 153.891 1713.51 151.065 1712.98 148.334C1712.45 145.603 1711.12 143.09 1709.15 141.115C1707.86 139.845 1706.34 138.833 1704.67 138.132C1702.92 137.405 1701.03 137.03 1699.13 137.03C1697.23 137.03 1695.35 137.405 1693.59 138.132C1690.21 139.535 1687.52 142.201 1686.09 145.556C1685.35 147.275 1684.97 149.127 1684.98 150.997L1685 151.005Z" fill="#F5BC24"/>
<path d="M1732.1 151.108C1732.08 148.542 1732.6 145.999 1733.61 143.637C1734.57 141.359 1735.98 139.29 1737.74 137.545C1739.5 135.811 1741.58 134.425 1743.86 133.461C1746.21 132.476 1748.74 131.968 1751.29 131.968C1753.84 131.968 1756.37 132.476 1758.72 133.461C1760.98 134.415 1763.03 135.781 1764.78 137.49C1766.53 139.204 1767.92 141.238 1768.89 143.478C1769.9 145.806 1770.45 148.31 1770.48 150.847V167.106C1770.49 167.447 1770.43 167.785 1770.3 168.101C1770.17 168.417 1769.98 168.705 1769.74 168.946C1769.51 169.199 1769.23 169.4 1768.91 169.537C1768.59 169.674 1768.25 169.743 1767.91 169.74C1767.57 169.745 1767.23 169.677 1766.92 169.54C1766.61 169.403 1766.34 169.201 1766.11 168.946C1765.65 168.447 1765.4 167.787 1765.41 167.106V163.664C1763.64 165.625 1761.52 167.239 1759.15 168.423C1756.73 169.627 1754.06 170.244 1751.36 170.223C1748.8 170.238 1746.26 169.728 1743.91 168.724C1741.63 167.76 1739.55 166.374 1737.79 164.64C1736.03 162.901 1734.62 160.841 1733.65 158.572C1732.62 156.218 1732.09 153.677 1732.1 151.108ZM1737.17 151.108C1737.16 152.974 1737.54 154.821 1738.28 156.534C1738.99 158.191 1740.01 159.7 1741.28 160.983C1742.56 162.266 1744.08 163.291 1745.75 164.005C1747.51 164.745 1749.4 165.127 1751.31 165.127C1753.22 165.127 1755.11 164.745 1756.87 164.005C1760.24 162.574 1762.91 159.893 1764.32 156.534C1765.05 154.817 1765.42 152.971 1765.4 151.108C1765.42 149.26 1765.07 147.427 1764.37 145.715C1763.67 144.004 1762.63 142.448 1761.32 141.139C1760.01 139.83 1758.45 138.794 1756.73 138.091C1755.01 137.388 1753.17 137.033 1751.31 137.046C1749.42 137.033 1747.54 137.408 1745.79 138.148C1742.42 139.554 1739.72 142.21 1738.28 145.556C1737.53 147.311 1737.15 149.201 1737.17 151.108Z" fill="#F5BC24"/>
<path d="M1792.43 150.942C1791.11 150.41 1789.86 149.709 1788.72 148.856C1787.67 148.069 1786.79 147.082 1786.12 145.953C1785.44 144.743 1785.1 143.373 1785.14 141.987C1785.12 140.459 1785.51 138.954 1786.27 137.625C1786.97 136.375 1787.94 135.293 1789.11 134.452C1790.32 133.591 1791.67 132.942 1793.09 132.533C1794.57 132.096 1796.11 131.875 1797.65 131.874C1798.81 131.875 1799.96 131.989 1801.09 132.215C1802.19 132.432 1803.26 132.776 1804.28 133.239C1805.26 133.682 1806.16 134.255 1806.98 134.944C1807.78 135.616 1808.43 136.438 1808.91 137.363C1809.16 137.806 1809.26 138.319 1809.19 138.822C1809.12 139.24 1808.92 139.625 1808.62 139.925C1808.31 140.269 1807.89 140.508 1807.43 140.607C1806.98 140.717 1806.5 140.66 1806.09 140.448C1805.06 139.246 1803.84 138.217 1802.48 137.403C1801.11 136.66 1799.57 136.293 1798.02 136.34C1797.07 136.34 1796.14 136.441 1795.22 136.641C1794.34 136.832 1793.5 137.164 1792.74 137.625C1792.01 138.049 1791.4 138.632 1790.94 139.33C1790.46 140.098 1790.22 140.989 1790.26 141.892C1790.23 142.728 1790.45 143.554 1790.88 144.271C1791.32 144.956 1791.91 145.542 1792.59 145.993C1793.38 146.519 1794.22 146.95 1795.11 147.277C1796.06 147.637 1797.08 147.978 1798.15 148.301C1799.87 148.829 1801.5 149.385 1803.05 149.966C1804.5 150.49 1805.87 151.197 1807.14 152.068C1808.28 152.852 1809.24 153.869 1809.96 155.05C1810.69 156.338 1811.05 157.8 1811.01 159.278C1811.02 160.767 1810.66 162.236 1809.98 163.561C1809.29 164.886 1808.34 166.057 1807.18 167.003C1805.95 168.007 1804.54 168.781 1803.03 169.287C1801.38 169.835 1799.66 170.103 1797.92 170.081C1796.58 170.081 1795.24 169.948 1793.93 169.684C1792.65 169.427 1791.4 169.017 1790.21 168.463C1789.05 167.931 1787.98 167.237 1787.02 166.4C1786.08 165.579 1785.32 164.585 1784.76 163.474C1784.57 163.183 1784.44 162.858 1784.38 162.517C1784.33 162.176 1784.34 161.827 1784.42 161.491C1784.49 161.214 1784.61 160.954 1784.78 160.726C1784.96 160.499 1785.17 160.308 1785.42 160.166C1785.95 159.881 1786.56 159.788 1787.15 159.904C1787.88 160.051 1788.52 160.465 1788.95 161.062C1789.78 162.542 1791.04 163.747 1792.55 164.529C1794.23 165.31 1796.07 165.687 1797.93 165.631C1798.96 165.632 1799.98 165.483 1800.97 165.187C1801.9 164.914 1802.78 164.493 1803.58 163.942C1804.33 163.429 1804.96 162.76 1805.42 161.982C1805.87 161.206 1806.11 160.321 1806.1 159.421C1806.12 158.492 1805.84 157.581 1805.31 156.819C1804.75 156.059 1804.04 155.419 1803.23 154.939C1802.29 154.374 1801.29 153.912 1800.25 153.559C1799.13 153.173 1797.97 152.819 1796.76 152.496C1795.3 152.031 1793.85 151.513 1792.43 150.942Z" fill="#F5BC24"/>
</g>
</g>
<defs>
<clipPath id="clip0">
<rect width="1920" height="1080" fill="white"/>
</clipPath>
<clipPath id="clip1">
<rect width="462" height="101" fill="white" transform="translate(1349 71)"/>
</clipPath>
</defs>
</svg>
