<svg width="1920" height="1080" viewBox="0 0 1920 1080" fill="none" xmlns="http://www.w3.org/2000/svg">
<g clip-path="url(#clip0)">
<rect width="1920" height="1080" fill="white"/>
<path d="M-2 -19C-2 -21.7614 0.238576 -24 3 -24H1917C1919.76 -24 1922 -21.7614 1922 -19V1043H-2V-19Z" fill="#192039"/>
<path fill-rule="evenodd" clip-rule="evenodd" d="M3 906.406L83.5833 896.995C164.167 887.584 325.333 867.416 486.5 809.604C647.667 751.792 808.833 654.99 970 636.167C1131.17 616 1292.33 673.812 1453.5 684.568C1614.67 693.979 1775.83 654.99 1856.42 636.167L1937 616V1139H1856.42C1775.83 1139 1614.67 1139 1453.5 1139C1292.33 1139 1131.17 1139 970 1139C808.833 1139 647.667 1139 486.5 1139C325.333 1139 164.167 1139 83.5833 1139H3V906.406Z" fill="#415396"/>
<path fill-rule="evenodd" clip-rule="evenodd" d="M1966 68.8149L1883.42 78.1542C1800.83 87.4936 1635.67 107.506 1470.5 164.877C1305.33 222.247 1140.17 318.308 975 336.987C809.833 357 644.667 299.63 479.5 288.956C314.333 279.617 149.167 318.308 66.5833 336.987L-16 357V-162H66.5833C149.167 -162 314.333 -162 479.5 -162C644.667 -162 809.833 -162 975 -162C1140.17 -162 1305.33 -162 1470.5 -162C1635.67 -162 1800.83 -162 1883.42 -162H1966V68.8149Z" fill="#253056"/>
<path fill-rule="evenodd" clip-rule="evenodd" d="M-16 888.798L49.1 832.362C114.2 775.927 196.253 713.581 326.453 737.096C456.653 759.043 597.025 807.094 727.225 852.556C857.425 896.45 1093.41 921.718 1223.61 888.798C1353.81 854.31 1416.2 821.389 1546.4 843.336C1676.6 866.851 1806.8 912.312 1871.9 934.26L1937 956.207L1937 1160L1871.9 1160C1806.8 1160 1676.6 1160 1546.4 1160C1416.2 1160 1286 1160 1155.8 1160C1025.6 1160 895.4 1160 765.2 1160C635 1160 504.8 1160 374.6 1160C244.4 1160 114.2 1160 49.1 1160L-16 1160L-16 888.798Z" fill="#96A0B9"/>
<path fill-rule="evenodd" clip-rule="evenodd" d="M-16 888.798L49.1 832.362C114.2 775.927 196.253 713.581 326.453 737.096C456.653 759.043 597.025 807.094 727.225 852.556C857.425 896.45 1093.41 921.718 1223.61 888.798C1353.81 854.31 1416.2 821.389 1546.4 843.336C1676.6 866.851 1806.8 912.312 1871.9 934.26L1937 956.207L1937 1160L1871.9 1160C1806.8 1160 1676.6 1160 1546.4 1160C1416.2 1160 1286 1160 1155.8 1160C1025.6 1160 895.4 1160 765.2 1160C635 1160 504.8 1160 374.6 1160C244.4 1160 114.2 1160 49.1 1160L-16 1160L-16 888.798Z" fill="#5369BB"/>
<path fill-rule="evenodd" clip-rule="evenodd" d="M-16 888.798L49.1 832.362C114.2 775.927 196.253 713.581 326.453 737.096C456.653 759.043 597.025 807.094 727.225 852.556C857.425 896.45 1093.41 921.718 1223.61 888.798C1353.81 854.31 1416.2 821.389 1546.4 843.336C1676.6 866.851 1806.8 912.312 1871.9 934.26L1937 956.207L1937 1160L1871.9 1160C1806.8 1160 1676.6 1160 1546.4 1160C1416.2 1160 1286 1160 1155.8 1160C1025.6 1160 895.4 1160 765.2 1160C635 1160 504.8 1160 374.6 1160C244.4 1160 114.2 1160 49.1 1160L-16 1160L-16 888.798Z" stroke="black"/>
</g>
<defs>
<clipPath id="clip0">
<rect width="1920" height="1080" fill="white"/>
</clipPath>
</defs>
</svg>
