<svg width="1440" height="1024" viewBox="0 0 1440 1024" fill="none" xmlns="http://www.w3.org/2000/svg">
<path d="M0 5C0 2.23858 2.23858 0 5 0H1435C1437.76 0 1440 2.23858 1440 5V1024H0V5Z" fill="#30324B"/>
<path fill-rule="evenodd" clip-rule="evenodd" d="M0 851L60 844C120 837 240 822 360 779C480 736 600 664 720 650C840 635 960 678 1080 686C1200 693 1320 664 1380 650L1440 635V1024H1380C1320 1024 1200 1024 1080 1024C960 1024 840 1024 720 1024C600 1024 480 1024 360 1024C240 1024 120 1024 60 1024H0V851Z" fill="#484D7B"/>
<path fill-rule="evenodd" clip-rule="evenodd" d="M1440 844.476L1406 808.476C1371 772.476 1303 700.476 1234 707.476C1166 714.476 1097 801.476 1029 822.476C960 844.476 891 801.476 823 794.476C754 786.476 686 815.476 617 858.476C549 902.476 480 959.476 411 974.476C343 988.476 274 959.476 206 909.476C137 858.476 69 786.476 34 750.476L0 714.476V1060.48H34C69 1060.48 137 1060.48 206 1060.48C274 1060.48 343 1060.48 411 1060.48C480 1060.48 549 1060.48 617 1060.48C686 1060.48 754 1060.48 823 1060.48C891 1060.48 960 1060.48 1029 1060.48C1097 1060.48 1166 1060.48 1234 1060.48C1303 1060.48 1371 1060.48 1406 1060.48H1440V844.476Z" fill="#72769B"/>
<path fill-rule="evenodd" clip-rule="evenodd" d="M0 930.027L48 894.027C96 858.027 192 786.027 288 801.027C384 815.027 480 916.027 576 945.027C672 973.027 768 930.027 864 909.027C960 887.027 1056 887.027 1152 901.027C1248 916.027 1344 945.027 1392 959.027L1440 973.027V1103.03H1392C1344 1103.03 1248 1103.03 1152 1103.03C1056 1103.03 960 1103.03 864 1103.03C768 1103.03 672 1103.03 576 1103.03C480 1103.03 384 1103.03 288 1103.03C192 1103.03 96 1103.03 48 1103.03H0V930.027Z" fill="#96A0B9"/>
<path fill-rule="evenodd" clip-rule="evenodd" d="M0 930.027L48 894.027C96 858.027 192 786.027 288 801.027C384 815.027 480 916.027 576 945.027C672 973.027 768 930.027 864 909.027C960 887.027 1056 887.027 1152 901.027C1248 916.027 1344 945.027 1392 959.027L1440 973.027V1103.03H1392C1344 1103.03 1248 1103.03 1152 1103.03C1056 1103.03 960 1103.03 864 1103.03C768 1103.03 672 1103.03 576 1103.03C480 1103.03 384 1103.03 288 1103.03C192 1103.03 96 1103.03 48 1103.03H0V930.027Z" fill="url(#paint0_linear)" fill-opacity="0.2"/>
<path fill-rule="evenodd" clip-rule="evenodd" d="M0 930.027L48 894.027C96 858.027 192 786.027 288 801.027C384 815.027 480 916.027 576 945.027C672 973.027 768 930.027 864 909.027C960 887.027 1056 887.027 1152 901.027C1248 916.027 1344 945.027 1392 959.027L1440 973.027V1103.03H1392C1344 1103.03 1248 1103.03 1152 1103.03C1056 1103.03 960 1103.03 864 1103.03C768 1103.03 672 1103.03 576 1103.03C480 1103.03 384 1103.03 288 1103.03C192 1103.03 96 1103.03 48 1103.03H0V930.027Z" stroke="black"/>
<path d="M908.366 140.604C908.175 140.227 908.047 139.755 907.984 139.189C907.92 138.624 907.952 138.058 908.079 137.492C908.271 136.926 908.526 136.392 908.845 135.889C909.228 135.386 909.738 135.009 910.376 134.757C911.27 134.38 912.035 134.191 912.674 134.191C913.375 134.191 913.982 134.317 914.492 134.569C915.003 134.757 915.481 135.04 915.928 135.417C916.374 135.732 916.821 136.046 917.268 136.36C919.118 137.743 922.021 138.435 925.978 138.435C928.02 138.435 929.647 137.995 930.859 137.115C932.135 136.235 932.773 135.071 932.773 133.625C932.773 132.179 932.199 131.048 931.05 130.23C929.902 129.35 928.434 128.627 926.648 128.061C924.925 127.433 923.042 126.835 921.001 126.27C919.022 125.641 917.14 124.824 915.353 123.818C913.631 122.749 912.195 121.397 911.046 119.763C909.898 118.128 909.324 115.927 909.324 113.161C909.324 108.76 910.887 105.208 914.013 102.505C917.14 99.7383 921.447 98.3551 926.935 98.3551C929.36 98.3551 931.465 98.5752 933.252 99.0153C935.038 99.3925 936.506 99.864 937.655 100.43C938.867 100.996 939.792 101.624 940.43 102.316C941.132 102.945 941.611 103.542 941.866 104.108C942.313 104.988 942.472 106.025 942.345 107.22C942.281 108.352 941.802 109.232 940.909 109.86C939.633 110.678 938.452 110.961 937.368 110.709C936.283 110.395 935.294 109.986 934.4 109.483C933.89 109.232 933.06 108.886 931.912 108.446C930.827 107.943 929.168 107.691 926.935 107.691C924.893 107.691 923.33 108.194 922.245 109.2C921.224 110.143 920.713 111.338 920.713 112.784C920.713 113.978 921.256 114.921 922.341 115.613C923.489 116.242 924.893 116.839 926.552 117.405C928.275 117.908 930.125 118.474 932.103 119.102C934.081 119.668 935.9 120.517 937.559 121.649C939.282 122.717 940.686 124.163 941.77 125.987C942.919 127.81 943.493 130.168 943.493 133.06C943.493 137.461 941.93 140.95 938.803 143.528C935.677 146.105 931.401 147.394 925.978 147.394C924 147.394 922.053 147.205 920.139 146.828C918.289 146.514 916.566 146.042 914.971 145.414C913.439 144.785 912.099 144.062 910.951 143.245C909.802 142.427 908.941 141.547 908.366 140.604Z" fill="white"/>
<path d="M1000.32 98.4495C1004.02 98.4495 1007.08 98.9839 1009.5 100.053C1011.93 101.059 1013.84 102.505 1015.25 104.391C1016.65 106.214 1017.64 108.414 1018.21 110.992C1018.79 113.507 1019.08 116.242 1019.08 119.197V142.962C1019.08 144.093 1018.57 145.131 1017.54 146.074C1016.52 146.954 1015.12 147.394 1013.33 147.394C1011.74 147.394 1010.43 146.954 1009.41 146.074C1008.45 145.131 1007.97 144.093 1007.97 142.962V118.819C1007.97 115.362 1007.3 112.815 1005.96 111.181C1004.69 109.546 1002.49 108.729 999.359 108.729C993.808 108.729 991.032 112.092 991.032 118.819V143.339L990.84 144.188L990.649 144.471C990.585 144.596 990.521 144.722 990.458 144.848C990.458 144.911 990.394 145.005 990.266 145.131C989.82 145.759 989.213 146.262 988.448 146.64C987.682 147.08 986.789 147.331 985.768 147.394H985.289C983.822 147.394 982.609 147.048 981.652 146.357C980.695 145.665 980.089 144.816 979.833 143.81C979.833 143.81 979.802 143.748 979.738 143.622V118.819C979.738 112.092 976.962 108.729 971.411 108.729C968.22 108.729 965.987 109.546 964.711 111.181C963.435 112.815 962.797 115.362 962.797 118.819V142.962C962.797 144.093 962.286 145.131 961.265 146.074C960.308 146.954 959 147.394 957.341 147.394C955.618 147.394 954.214 146.954 953.13 146.074C952.109 145.131 951.598 144.093 951.598 142.962V119.197C951.598 116.242 951.885 113.507 952.46 110.992C953.034 108.414 954.023 106.214 955.427 104.391C956.894 102.505 958.84 101.059 961.265 100.053C963.69 98.9839 966.753 98.4495 970.454 98.4495C974.155 98.4495 977.185 99.141 979.546 100.524C981.971 101.844 983.885 103.605 985.289 105.805C986.757 103.605 988.671 101.844 991.032 100.524C993.393 99.141 996.488 98.4495 1000.32 98.4495Z" fill="white"/>
<path d="M1047.19 98.2608C1049.81 98.2608 1052.1 98.7952 1054.08 99.864C1056.12 100.87 1057.78 102.096 1059.06 103.542L1059.73 103.448V86.1897C1059.73 85.0581 1060.21 84.0521 1061.16 83.1719C1062.18 82.2289 1063.49 81.7574 1065.09 81.7574C1066.87 81.7574 1068.28 82.2289 1069.3 83.1719C1070.32 84.0521 1070.83 85.0581 1070.83 86.1897V126.835C1070.83 129.79 1070.38 132.525 1069.49 135.04C1068.6 137.555 1067.26 139.724 1065.47 141.547C1063.75 143.37 1061.55 144.816 1058.87 145.885C1056.25 146.891 1053.19 147.394 1049.68 147.394C1045.91 147.394 1042.63 146.828 1039.82 145.697C1037.08 144.565 1034.78 143.025 1032.93 141.076C1031.08 139.127 1029.67 136.863 1028.72 134.286C1027.82 131.645 1027.38 128.847 1027.38 125.892V119.763C1027.38 116.808 1027.76 114.041 1028.53 111.464C1029.29 108.823 1030.47 106.528 1032.07 104.579C1033.66 102.63 1035.7 101.09 1038.19 99.9583C1040.68 98.8267 1043.68 98.2608 1047.19 98.2608ZM1049.68 137.115C1052.49 137.115 1054.85 136.329 1056.76 134.757C1058.74 133.185 1059.73 130.671 1059.73 127.213V118.159C1059.6 114.827 1058.55 112.407 1056.57 110.898C1054.65 109.326 1052.36 108.54 1049.68 108.54C1046.36 108.54 1043.68 109.515 1041.64 111.464C1039.66 113.413 1038.67 116.053 1038.67 119.385V126.27C1038.67 129.602 1039.66 132.242 1041.64 134.191C1043.68 136.14 1046.36 137.115 1049.68 137.115Z" fill="white"/>
<path d="M1102.52 147.394C1099.01 147.394 1095.91 146.891 1093.23 145.885C1090.62 144.816 1088.42 143.37 1086.63 141.547C1084.84 139.661 1083.5 137.461 1082.61 134.946C1081.72 132.368 1081.27 129.602 1081.27 126.647V102.882C1081.27 101.75 1081.78 100.744 1082.8 99.864C1083.89 98.921 1085.29 98.4495 1087.01 98.4495C1088.67 98.4495 1089.98 98.921 1090.94 99.864C1091.96 100.744 1092.47 101.75 1092.47 102.882V127.024C1092.47 130.482 1093.43 133.028 1095.34 134.663C1097.25 136.297 1099.65 137.115 1102.52 137.115C1105.39 137.115 1107.75 136.297 1109.6 134.663C1111.52 133.028 1112.47 130.482 1112.47 127.024V102.882C1112.47 101.75 1112.98 100.744 1114 99.864C1115.03 98.921 1116.37 98.4495 1118.02 98.4495C1119.68 98.4495 1121.06 98.921 1122.14 99.864C1123.22 100.744 1123.77 101.75 1123.77 102.882V126.647C1123.77 129.602 1123.32 132.368 1122.43 134.946C1121.53 137.461 1120.19 139.661 1118.41 141.547C1116.62 143.37 1114.39 144.816 1111.71 145.885C1109.09 146.891 1106.03 147.394 1102.52 147.394ZM1103.48 90.8107C1102.71 91.125 1101.82 91.0622 1100.8 90.6221C1099.84 90.1191 1099.11 89.3647 1098.59 88.3587C1098.08 87.3528 1097.99 86.3783 1098.31 85.4353C1098.69 84.4293 1099.23 83.7692 1099.93 83.4549L1113.43 76.3819C1114.77 75.8161 1116.01 75.879 1117.16 76.5705C1118.31 77.1993 1119.14 78.0794 1119.65 79.2111C1120.23 80.3428 1120.39 81.5373 1120.13 82.7947C1119.94 84.0521 1119.17 84.9637 1117.83 85.5296L1103.48 90.8107Z" fill="white"/>
<path d="M1159.18 143.433C1158.86 144.502 1158.13 145.445 1156.98 146.262C1155.83 147.017 1154.49 147.394 1152.96 147.394C1151.36 147.394 1149.99 147.017 1148.84 146.262C1147.76 145.445 1147.06 144.502 1146.74 143.433L1131.33 104.391C1131.01 103.322 1131.2 102.222 1131.9 101.09C1132.6 99.8955 1133.82 99.0782 1135.54 98.6381C1137.13 98.2608 1138.54 98.3866 1139.75 99.0153C1141.03 99.644 1141.82 100.493 1142.14 101.562L1152.96 133.625L1163.68 101.562C1164.06 100.493 1164.86 99.644 1166.07 99.0153C1167.35 98.3866 1168.75 98.2608 1170.28 98.6381C1172.01 99.0782 1173.22 99.8955 1173.92 101.09C1174.69 102.222 1174.91 103.322 1174.59 104.391L1159.18 143.433Z" fill="white"/>
<path d="M1183.11 102.788C1183.11 101.656 1183.62 100.65 1184.64 99.7697C1185.73 98.8267 1187.13 98.3551 1188.85 98.3551C1190.51 98.3551 1191.82 98.8267 1192.78 99.7697C1193.8 100.65 1194.31 101.656 1194.31 102.788V142.962C1194.31 144.093 1193.8 145.131 1192.78 146.074C1191.82 146.954 1190.51 147.394 1188.85 147.394C1187.13 147.394 1185.73 146.954 1184.64 146.074C1183.62 145.131 1183.11 144.093 1183.11 142.962V102.788ZM1183.11 85.8125C1183.11 84.6808 1183.62 83.6749 1184.64 82.7947C1185.73 81.8517 1187.13 81.3801 1188.85 81.3801C1190.51 81.3801 1191.82 81.8517 1192.78 82.7947C1193.8 83.6749 1194.31 84.6808 1194.31 85.8125V88.0758C1194.31 89.2075 1193.8 90.2449 1192.78 91.1879C1191.82 92.0681 1190.51 92.5082 1188.85 92.5082C1187.13 92.5082 1185.73 92.0681 1184.64 91.1879C1183.62 90.2449 1183.11 89.2075 1183.11 88.0758V85.8125Z" fill="white"/>
<path d="M1223.44 98.2608C1226.06 98.2608 1228.35 98.7952 1230.33 99.864C1232.37 100.87 1234.03 102.096 1235.31 103.542L1235.98 103.448V86.1897C1235.98 85.0581 1236.46 84.0521 1237.41 83.1719C1238.43 82.2289 1239.74 81.7574 1241.34 81.7574C1243.12 81.7574 1244.53 82.2289 1245.55 83.1719C1246.57 84.0521 1247.08 85.0581 1247.08 86.1897V126.835C1247.08 129.79 1246.63 132.525 1245.74 135.04C1244.85 137.555 1243.51 139.724 1241.72 141.547C1240 143.37 1237.8 144.816 1235.12 145.885C1232.5 146.891 1229.44 147.394 1225.93 147.394C1222.16 147.394 1218.88 146.828 1216.07 145.697C1213.33 144.565 1211.03 143.025 1209.18 141.076C1207.33 139.127 1205.92 136.863 1204.97 134.286C1204.07 131.645 1203.63 128.847 1203.63 125.892V119.763C1203.63 116.808 1204.01 114.041 1204.78 111.464C1205.54 108.823 1206.72 106.528 1208.32 104.579C1209.91 102.63 1211.95 101.09 1214.44 99.9583C1216.93 98.8267 1219.93 98.2608 1223.44 98.2608ZM1225.93 137.115C1228.74 137.115 1231.1 136.329 1233.01 134.757C1234.99 133.185 1235.98 130.671 1235.98 127.213V118.159C1235.85 114.827 1234.8 112.407 1232.82 110.898C1230.91 109.326 1228.61 108.54 1225.93 108.54C1222.61 108.54 1219.93 109.515 1217.89 111.464C1215.91 113.413 1214.92 116.053 1214.92 119.385V126.27C1214.92 129.602 1215.91 132.242 1217.89 134.191C1219.93 136.14 1222.61 137.115 1225.93 137.115Z" fill="white"/>
<path d="M1293.51 147.866C1291.91 147.866 1290.61 147.394 1289.59 146.451C1288.63 145.571 1288.15 144.565 1288.15 143.433V141.924L1287.29 141.641C1286.71 142.459 1286.08 143.213 1285.37 143.905C1284.74 144.596 1283.94 145.225 1282.98 145.791C1282.02 146.294 1280.88 146.671 1279.54 146.923C1278.26 147.237 1276.66 147.394 1274.75 147.394C1271.69 147.394 1269.01 146.86 1266.71 145.791C1264.41 144.659 1262.53 143.213 1261.06 141.453C1259.6 139.692 1258.48 137.681 1257.71 135.417C1257.01 133.154 1256.66 130.828 1256.66 128.439V120.14C1256.66 117.499 1257.14 114.89 1258.1 112.312C1259.05 109.735 1260.46 107.408 1262.31 105.334C1264.16 103.259 1266.49 101.593 1269.29 100.336C1272.1 99.0153 1275.39 98.3551 1279.15 98.3551C1282.66 98.3551 1285.69 98.8267 1288.25 99.7697C1290.8 100.713 1292.87 102.033 1294.47 103.731C1296.13 105.365 1297.34 107.314 1298.1 109.578C1298.87 111.841 1299.25 114.324 1299.25 117.028V143.433C1299.25 144.565 1298.74 145.571 1297.72 146.451C1296.7 147.394 1295.3 147.866 1293.51 147.866ZM1288.15 117.216C1288.15 114.073 1287.35 111.872 1285.76 110.615C1284.23 109.295 1282.02 108.634 1279.15 108.634C1277.49 108.634 1275.99 108.949 1274.65 109.578C1273.31 110.143 1272.17 110.961 1271.21 112.029C1270.25 113.035 1269.49 114.198 1268.91 115.519C1268.4 116.839 1268.15 118.254 1268.15 119.763V128.816C1268.15 131.079 1269.01 133.028 1270.73 134.663C1272.45 136.297 1274.59 137.115 1277.14 137.115C1278.55 137.115 1279.89 136.895 1281.16 136.455C1282.5 135.952 1283.68 135.26 1284.7 134.38C1285.72 133.437 1286.55 132.274 1287.19 130.891C1287.83 129.507 1288.15 127.904 1288.15 126.081V117.216Z" fill="white"/>
<path d="M1308.26 140.604C1308.07 140.227 1307.94 139.755 1307.87 139.189C1307.81 138.624 1307.84 138.058 1307.97 137.492C1308.16 136.926 1308.42 136.392 1308.74 135.889C1309.12 135.386 1309.63 135.009 1310.27 134.757C1311.16 134.38 1311.93 134.191 1312.56 134.191C1313.27 134.191 1313.87 134.317 1314.38 134.569C1314.89 134.757 1315.37 135.04 1315.82 135.417C1316.26 135.732 1316.71 136.046 1317.16 136.36C1319.01 137.743 1321.91 138.435 1325.87 138.435C1327.91 138.435 1329.54 137.995 1330.75 137.115C1332.03 136.235 1332.66 135.071 1332.66 133.625C1332.66 132.179 1332.09 131.048 1330.94 130.23C1329.79 129.35 1328.32 128.627 1326.54 128.061C1324.82 127.433 1322.93 126.835 1320.89 126.27C1318.91 125.641 1317.03 124.824 1315.24 123.818C1313.52 122.749 1312.09 121.397 1310.94 119.763C1309.79 118.128 1309.21 115.927 1309.21 113.161C1309.21 108.76 1310.78 105.208 1313.9 102.505C1317.03 99.7383 1321.34 98.3551 1326.83 98.3551C1329.25 98.3551 1331.36 98.5752 1333.14 99.0153C1334.93 99.3925 1336.4 99.864 1337.54 100.43C1338.76 100.996 1339.68 101.624 1340.32 102.316C1341.02 102.945 1341.5 103.542 1341.76 104.108C1342.2 104.988 1342.36 106.025 1342.23 107.22C1342.17 108.352 1341.69 109.232 1340.8 109.86C1339.52 110.678 1338.34 110.961 1337.26 110.709C1336.17 110.395 1335.18 109.986 1334.29 109.483C1333.78 109.232 1332.95 108.886 1331.8 108.446C1330.72 107.943 1329.06 107.691 1326.83 107.691C1324.78 107.691 1323.22 108.194 1322.14 109.2C1321.11 110.143 1320.6 111.338 1320.6 112.784C1320.6 113.978 1321.15 114.921 1322.23 115.613C1323.38 116.242 1324.78 116.839 1326.44 117.405C1328.17 117.908 1330.02 118.474 1331.99 119.102C1333.97 119.668 1335.79 120.517 1337.45 121.649C1339.17 122.717 1340.58 124.163 1341.66 125.987C1342.81 127.81 1343.38 130.168 1343.38 133.06C1343.38 137.461 1341.82 140.95 1338.69 143.528C1335.57 146.105 1331.29 147.394 1325.87 147.394C1323.89 147.394 1321.94 147.205 1320.03 146.828C1318.18 146.514 1316.46 146.042 1314.86 145.414C1313.33 144.785 1311.99 144.062 1310.84 143.245C1309.69 142.427 1308.83 141.547 1308.26 140.604Z" fill="white"/>
<path fill-rule="evenodd" clip-rule="evenodd" d="M863.324 151.11C863.324 152.164 864.259 152.984 865.305 152.793C880.76 149.967 892.467 136.55 892.467 120.425C892.467 102.247 877.588 87.51 859.234 87.51C840.879 87.51 826 102.247 826 120.425C826 136.947 838.29 150.625 854.309 152.982C855.339 153.133 856.234 152.32 856.234 151.289V138.076C856.234 131.757 858.861 125.716 863.496 121.374L865.269 119.713C867.356 117.757 868.539 115.037 868.539 112.191V111.189C868.539 108.101 866.872 105.248 864.168 103.71C861.463 102.171 858.133 102.183 855.439 103.741L855.301 103.821C852.69 105.332 851.021 108.041 850.86 111.032L850.809 111.967C850.705 113.903 849.036 115.389 847.081 115.286C845.126 115.183 843.625 113.529 843.73 111.593L843.78 110.658C844.068 105.308 847.054 100.46 851.725 97.7579L851.864 97.6778C856.751 94.8511 862.791 94.8293 867.698 97.6206C872.604 100.411 875.629 105.586 875.629 111.189V112.191C875.629 116.967 873.644 121.532 870.141 124.815L868.368 126.475C865.148 129.491 863.324 133.687 863.324 138.076V151.11Z" fill="#F8E295"/>
<path fill-rule="evenodd" clip-rule="evenodd" d="M863.324 151.11C863.324 152.164 864.259 152.984 865.305 152.793C880.76 149.967 892.467 136.55 892.467 120.425C892.467 102.247 877.588 87.51 859.234 87.51C840.879 87.51 826 102.247 826 120.425C826 136.947 838.29 150.625 854.309 152.982C855.339 153.133 856.234 152.32 856.234 151.289V138.076C856.234 131.757 858.861 125.716 863.496 121.374L865.269 119.713C867.356 117.757 868.539 115.037 868.539 112.191V111.189C868.539 108.101 866.872 105.248 864.168 103.71C861.463 102.171 858.133 102.183 855.439 103.741L855.301 103.821C852.69 105.332 851.021 108.041 850.86 111.032L850.809 111.967C850.705 113.903 849.036 115.389 847.081 115.286C845.126 115.183 843.625 113.529 843.73 111.593L843.78 110.658C844.068 105.308 847.054 100.46 851.725 97.7579L851.864 97.6778C856.751 94.8511 862.791 94.8293 867.698 97.6206C872.604 100.411 875.629 105.586 875.629 111.189V112.191C875.629 116.967 873.644 121.532 870.141 124.815L868.368 126.475C865.148 129.491 863.324 133.687 863.324 138.076V151.11Z" fill="#F7BD28" fill-opacity="0.53" style="mix-blend-mode:multiply"/>
<path fill-rule="evenodd" clip-rule="evenodd" d="M863.324 151.11C863.324 152.164 864.259 152.984 865.305 152.793C880.76 149.967 892.467 136.55 892.467 120.425C892.467 102.247 877.588 87.51 859.234 87.51C840.879 87.51 826 102.247 826 120.425C826 136.947 838.29 150.625 854.309 152.982C855.339 153.133 856.234 152.32 856.234 151.289V138.076C856.234 131.757 858.861 125.716 863.496 121.374L865.269 119.713C867.356 117.757 868.539 115.037 868.539 112.191V111.189C868.539 108.101 866.872 105.248 864.168 103.71C861.463 102.171 858.133 102.183 855.439 103.741L855.301 103.821C852.69 105.332 851.021 108.041 850.86 111.032L850.809 111.967C850.705 113.903 849.036 115.389 847.081 115.286C845.126 115.183 843.625 113.529 843.73 111.593L843.78 110.658C844.068 105.308 847.054 100.46 851.725 97.7579L851.864 97.6778C856.751 94.8511 862.791 94.8293 867.698 97.6206C872.604 100.411 875.629 105.586 875.629 111.189V112.191C875.629 116.967 873.644 121.532 870.141 124.815L868.368 126.475C865.148 129.491 863.324 133.687 863.324 138.076V151.11Z" fill="url(#paint1_radial)" style="mix-blend-mode:screen"/>
<defs>
<linearGradient id="paint0_linear" x1="564.5" y1="1103" x2="720" y2="859.5" gradientUnits="userSpaceOnUse">
<stop stop-color="#1637AA"/>
<stop offset="1" stop-color="#2E5BCE" stop-opacity="0"/>
</linearGradient>
<radialGradient id="paint1_radial" cx="0" cy="0" r="1" gradientUnits="userSpaceOnUse" gradientTransform="translate(859.328 119.029) rotate(90) scale(35.1029 48.9177)">
<stop stop-color="#B59730"/>
<stop offset="1" stop-color="#B15743" stop-opacity="0"/>
</radialGradient>
</defs>
</svg>
